<svg xmlns="http://www.w3.org/2000/svg" xmlns:xlink="http://www.w3.org/1999/xlink" viewBox="0,0,256,256" width="100px" height="100px" fill-rule="nonzero"><g fill="#ef88be" fill-rule="nonzero" stroke="none" stroke-width="1" stroke-linecap="butt" stroke-linejoin="miter" stroke-miterlimit="10" stroke-dasharray="" stroke-dashoffset="0" font-family="none" font-weight="none" font-size="none" text-anchor="none" style="mix-blend-mode: normal"><g transform="scale(5.12,5.12)"><path d="M14.98828,3.99023c-0.4078,-0.00071 -0.77519,0.24625 -0.92849,0.62414c-0.1533,0.37789 -0.06181,0.81101 0.23123,1.09461l6.29492,6.29492h-10.61328c-3.28739,0 -5.97852,2.68812 -5.97852,5.97656v19.04297c0,3.28739 2.69008,5.97852 5.97852,5.97852h3.02734v1c0,1.104 0.89795,2.001 2.00195,2c1.103,0 2,-0.896 2,-2v-1h15.98633v1c0,1.104 0.897,2 2,2c1.104,0.001 2,-0.896 2,-2v-1h3.02734c3.28739,0 5.97656,-2.69008 5.97656,-5.97852v-19.04297c0,-3.2882 -2.68837,-5.97656 -5.97656,-5.97656h-10.60156l6.29492,-6.29492c0.39102,-0.39102 0.39102,-1.02499 0,-1.41602c-0.39102,-0.39102 -1.02499,-0.39102 -1.41602,0l-7.71094,7.71094h-3.16406l-7.71094,-7.71094c-0.18874,-0.19402 -0.44807,-0.30325 -0.71875,-0.30273zM9.97266,14.00391h12.92383c0.07463,0.00843 0.14998,0.00843 0.22461,0h3.76563c0.06947,0.0073 0.13951,0.0073 0.20898,0h12.91992c2.2058,0 3.97656,1.77076 3.97656,3.97656v19.04297c0,2.20556 -1.77196,3.97852 -3.97656,3.97852h-30.04297c-2.20556,0 -3.97852,-1.77391 -3.97852,-3.97852v-19.04297c0,-2.20556 1.77391,-3.97656 3.97852,-3.97656zM20.04883,21.99609c-0.12355,-0.00373 -0.24673,0.01547 -0.36328,0.05664l-6,2c-0.3522,0.10199 -0.62034,0.38854 -0.69877,0.74672c-0.07843,0.35818 0.04545,0.73056 0.3228,0.9704c0.27735,0.23983 0.66371,0.30866 1.00683,0.17936l6,-2c0.46441,-0.14679 0.75554,-0.60679 0.68943,-1.08934c-0.06611,-0.48255 -0.47023,-0.8473 -0.95701,-0.86378zM30.01953,21.99609c-0.03387,-0.00107 -0.06776,-0.00042 -0.10156,0.00195c-0.47998,0.03103 -0.86989,0.39934 -0.9282,0.87678c-0.05831,0.47744 0.23151,0.92876 0.68991,1.07439l6,2c0.34214,0.12584 0.72565,0.05555 1.00092,-0.18346c0.27527,-0.23901 0.39868,-0.60886 0.32209,-0.96528c-0.07659,-0.35641 -0.34105,-0.64292 -0.6902,-0.74775l-6,-2c-0.09427,-0.03342 -0.19303,-0.05252 -0.29297,-0.05664zM30.95313,29.97656c-0.44693,0.0252 -0.82268,0.34431 -0.91992,0.78125c-0.14847,0.59438 -0.94096,1.24414 -2.03906,1.24414c-1.08859,0 -1.87468,-0.63799 -2.03125,-1.22461c-0.11612,-0.43866 -0.51303,-0.74416 -0.9668,-0.74416c-0.45377,0 -0.85067,0.3055 -0.9668,0.74416c-0.15802,0.58814 -0.94713,1.22461 -2.0332,1.22461c-1.09937,0 -1.88864,-0.64976 -2.03711,-1.24414c-0.11144,-0.47448 -0.54869,-0.79953 -1.03516,-0.76953c-0.2996,0.01804 -0.57525,0.16968 -0.75088,0.41307c-0.17563,0.24339 -0.23267,0.55278 -0.15537,0.84279c0.37469,1.50008 1.8014,2.38538 3.41602,2.5918c0.1667,0.11031 0.36262,0.16813 0.5625,0.16602c0.19881,0.00289 0.39397,-0.05355 0.56055,-0.16211c1.0004,-0.12699 1.80336,-0.56326 2.43945,-1.23437c0.76341,0.80488 1.76147,1.39648 2.99805,1.39648c1.86989,0 3.55698,-1.0702 3.97852,-2.75781c0.08682,-0.31081 0.01833,-0.64441 -0.18392,-0.89587c-0.20225,-0.25146 -0.51342,-0.38988 -0.83561,-0.37171z"></path></g></g></svg>