<!-- icon666.com - MILLIONS OF FREE VECTOR ICONS --><svg id="Layer_1" viewBox="0 0 512 512" xmlns="http://www.w3.org/2000/svg" data-name="Layer 1"><g fill-rule="evenodd"><path d="m311.095 386.82-6.276 15.957h-97.576l-6.283-15.957z" fill="#5eb2fc"></path><path d="m31.185 93.783a11.692 11.692 0 0 1 11.684-11.683h426.262a11.688 11.688 0 0 1 11.679 11.683v281.036h-449.625z" fill="#5eb2fc"></path><path d="m453.692 408.358a8 8 0 0 1 7.986-8h.023a8 8 0 1 1 -8.009 8zm-32.591 0a8 8 0 0 1 7.986-8h.024a8 8 0 1 1 -8.01 8zm-32.59 0a8 8 0 0 1 7.991-8h.018a8 8 0 1 1 -8.009 8zm-265.017 0a8 8 0 1 1 -8.01-8h.01a8 8 0 0 1 8 8zm-32.59 0a8 8 0 1 1 -8.01-8h.006a8 8 0 0 1 8 8zm-32.591 0a8 8 0 1 1 -8.01-8h.01a8 8 0 0 1 8 8zm437.686 0v-19.538h-170.66c-.037.118-.071.231-.108.339l-8.883 22.553a8 8 0 0 1 -7.439 5.066h-105.752a8 8 0 0 1 -7.444-5.066l-8.939-22.712c-.023-.061-.038-.118-.061-.179h-170.713v19.538a19.562 19.562 0 0 0 19.534 19.541h440.922a19.561 19.561 0 0 0 19.544-19.542zm-187.839-19.538-4.7 11.957h-94.855l-4.705-11.957zm-274.975-295.037a9.691 9.691 0 0 1 9.684-9.683h426.262a9.687 9.687 0 0 1 9.679 9.679v279.04h-445.625zm470.815 279.036h-9.189v-279.036a25.708 25.708 0 0 0 -25.68-25.68h-426.262a25.708 25.708 0 0 0 -25.68 25.68v279.036h-9.189a8 8 0 0 0 -8 8v27.538a35.577 35.577 0 0 0 35.534 35.543h440.922a35.576 35.576 0 0 0 35.544-35.542v-27.538a8 8 0 0 0 -8-8.001z" fill="#4b6274"></path></g></svg>