<?xml version="1.0" encoding="UTF-8"?>
<svg xmlns="http://www.w3.org/2000/svg" id="b" data-name="Layer 2" viewBox="0 0 156.7803 156.7768">
  <g id="c" data-name="图层 1">
    <g>
      <g>
        <path d="m18.2255,82.8344l.637,5.3155-.5873.0704c-.1068-.1964-.2203-.4205-.3392-.6725-.119-.2523-.215-.5098-.2884-.7728l-8.7771,1.0516.2147,1.7927,2.7609.6721.0759.6339c-.2009.0658-.4587.1387-.7731.2182-.3144.0794-.6401.155-.9762.2265-.3362.0718-.6704.138-1.0027.1985-.3323.0611-.6169.1054-.854.1339l-1.1777-9.8281c.2473-.0295.5371-.054.8689-.0726.3326-.0189.6702-.0333,1.0138-.0433.3439-.0098.6754-.0128.9942-.0092.3193.0037.5896.013.8109.0284l.0756.6334-2.5238,1.3055.2147,1.7925,8.7771-1.0517c.0196-.2738.0497-.5466.0903-.8181.0406-.2713.1002-.5159.1786-.7345l.5871-.0701Z" style="fill: white;stroke-width: 0px;"/>
        <path d="m18.2561,73.5571l-.1899,4.8521-.5909-.0232c-.2117-.4234-.3458-.8496-.4019-1.2772l-8.8019-.3447c-.0392.2063-.1046.4219-.1968.6464-.0919.2254-.1929.4235-.3036.5958l-.5909-.023.1899-4.8521.5912.0232c.1065.191.1946.3997.2636.6253.069.2263.1148.4434.138.6521l8.8019.3443c.0497-.2055.1154-.4186.1965-.6385.0814-.2201.1827-.4215.3039-.6036l.5909.0233Z" style="fill: white;stroke-width: 0px;"/>
        <path d="m19.0074,67.8693l-.7869,3.763-.5788-.1212c-.0673-.1835-.1198-.3774-.1568-.5816-.0367-.2037-.0563-.4009-.0588-.5925l-9.004-5.9848.2357-1.1275,10.6255-1.7691c.0828-.1944.1835-.3854.3025-.5724.1187-.1874.2445-.3464.3779-.4775l.5791.1209-.9972,4.7682-.5788-.1212c-.0511-.2118-.0936-.438-.1283-.6784-.0345-.2404-.0508-.4665-.0491-.6784l-2.6069.3773-.7071,3.3821,2.2343,1.4053c.1584-.4543.3983-.8656.719-1.2331l.5788.1209Zm-4.4457-.866l.5639-2.6961-3.117.3817-1.3704.0153-.0066.0302,1.2707.6155,2.6593,1.6533Z" style="fill: white;stroke-width: 0px;"/>
        <path d="m14.0986,47.8358l1.5744-3.5241.5542.2477c.0616.2434.098.4983.1093.7648.0113.2663.0033.5069-.0246.722l8.9391,3.9925-.5396,1.208-9.4878,1.7793-1.348.0796-.019.0424,1.194.3802,5.9256,2.6465c.1322-.168.3044-.3438.517-.5275.2128-.1833.4115-.3304.5973-.4408l.5402.2412-1.5677,3.51-.5402-.2411c-.0373-.2212-.0602-.4557-.0687-.704-.0083-.2479.0033-.4957.0345-.7432l-7.7465-3.4601c-.1601.1558-.3301.3071-.5092.4544-.1791.1471-.3547.2735-.5263.3783l-.5399-.2411,1.3709-3.0695,7.733-1.4379,1.5139-.1079.0257-.0567-1.2514-.4736-4.7358-2.1153c-.1772.1935-.3676.3729-.5716.5373-.204.1645-.4032.2999-.5981.4061l-.5545-.2477Z" style="fill: white;stroke-width: 0px;"/>
        <path d="m31.7356,38.9249c-.0386.2288-.1043.4954-.1979.7996-.0936.3043-.2045.6148-.3329.9321-.1289.3174-.2699.6252-.4234.9239-.154.2991-.3072.5533-.4601.7625-.5255.7215-1.0889,1.2959-1.6903,1.7241-.6011.4284-1.2379.7029-1.9097.8226-.6718.1202-1.369.0774-2.0922-.1289-.7229-.2059-1.4615-.5843-2.2158-1.1343-.8217-.5994-1.4264-1.236-1.8142-1.9104-.3878-.6746-.6097-1.3563-.6657-2.0456-.056-.6891.0279-1.3635.2514-2.0222.2236-.6586.5402-1.269.9497-1.8308.4035-.5534.82-1.0455,1.25-1.4766s.8203-.7376,1.1706-.9186c.1259.0916.2829.2158.4706.3719.188.1561.3859.3294.5937.5194.2078.1906.4115.3868.6105.5896.1987.2027.3721.3968.5194.5813l-.3756.5156-2.425-.6896c-.1093.062-.2415.1773-.3969.3463-.1554.1696-.3006.346-.4347.5305-.2509.3438-.4253.7238-.5233,1.1399-.0983.4166-.0872.8549.0331,1.3148.1203.4604.3654.9346.7353,1.4224.3696.4881.894.9794,1.5733,1.4746.5531.4034,1.1057.707,1.6572.9099.552.2034,1.0767.3068,1.5746.3102.4979.004.9589-.0905,1.3817-.2828.4228-.1927.7778-.4858,1.0651-.8799.0916-.1259.1761-.2633.2528-.4126.077-.1493.1413-.2951.1932-.4371.0524-.1417.0894-.272.1118-.3906.0221-.1187.0287-.2069.0196-.2647l-2.364-1.7242c-.1758.2059-.3674.381-.5752.5244-.2076.1442-.4187.2662-.6332.3667l-.4778-.3483,2.5031-3.4333.478.3483c.0204.1307.016.2815-.0127.4532-.029.1718-.0925.3693-.1913.5926l2.817,2.0541Z" style="fill: white;stroke-width: 0px;"/>
        <path d="m30.6506,32.9226c-.5402-.6024-.9555-1.2368-1.2459-1.9031-.2906-.6657-.4378-1.3352-.4413-2.0078-.0039-.6726.1444-1.3313.4441-1.9761.2997-.6452.7665-1.2513,1.4002-1.8193.6334-.5676,1.287-.9655,1.9608-1.1932.6737-.2278,1.3428-.3014,2.0069-.2209.6644.0806,1.3116.3014,1.9423.6627.6304.3616,1.2158.8433,1.756,1.4463.5402.6025.9555,1.2371,1.2459,1.9029.2906.6667.4397,1.334.4471,2.0029.0075.6693-.1386,1.3262-.4383,1.9708-.2997.6449-.7665,1.2514-1.3999,1.8193-.6337.568-1.2873.9655-1.961,1.1933-.6737.2274-1.3447.3035-2.0127.2259-.6682-.0765-1.3174-.2957-1.9478-.6575-.6307-.3616-1.2158-.8435-1.7562-1.4463Zm1.9704-1.7659c.4433.4946.8921.918,1.3466,1.2696.4549.3522.9017.606,1.3417.7623.4397.1564.8667.2052,1.2812.1471s.8035-.2498,1.1667-.5755c.332-.2977.5363-.6376.6125-1.0192.0759-.3816.0505-.7906-.0762-1.2276-.127-.4364-.3461-.8951-.6577-1.3749-.3119-.4798-.6892-.967-1.1325-1.4619-.4433-.4942-.8901-.919-1.3411-1.2742-.451-.3556-.8921-.6145-1.324-.7779-.432-.1631-.8554-.2156-1.2696-.1575-.4151.0578-.8076.2532-1.1786.5856-.3555.3185-.5752.6721-.6586,1.0607-.0836.3886-.0602.7995.0704,1.2325.1306.4339.3555.8865.6751,1.3596.3196.4734.7008.9569,1.1441,1.4511Z" style="fill: white;stroke-width: 0px;"/>
        <path d="m44.9517,15.5352l3.3629-1.8944.2978.5288c-.0952.2324-.2178.459-.3671.6797-.1496.2212-.2997.4092-.4496.5657l4.805,8.5298-1.1526.6494-8.6824-4.2194-1.1303-.7386-.0408.0229.7331,1.0163,3.1851,5.6543c.2065-.0563.4493-.0951.7295-.1161.2801-.0207.5275-.02.7425.0018l.2901.5153-3.3494,1.8864-.2901-.5153c.1018-.1997.223-.402.3641-.6063.1408-.2042.2973-.3963.4698-.5769l-4.1639-7.3918c-.2216.0298-.448.0502-.6795.062-.2318.0115-.448.0088-.6486-.0092l-.2901-.5153,2.9287-1.6498,7.0694,3.4486,1.2807.8148.0544-.0308-.7234-1.1254-2.5456-4.5191c-.2578.0501-.5172.0807-.7792.0914-.2619.011-.5026.0011-.7226-.0298l-.2978-.529Z" style="fill: white;stroke-width: 0px;"/>
        <path d="m64.4377,18.8981c-.1675.1608-.3795.3352-.6359.5233-.257.1884-.5316.3712-.8239.5491-.2926.1776-.5896.3403-.8912.4884-.302.1478-.5766.2606-.8242.3374-.8523.2643-1.6475.3888-2.3855.3736-.738-.0153-1.4123-.1751-2.0229-.4804-.6108-.3044-1.1446-.7552-1.6014-1.3524-.4568-.5966-.8236-1.3411-1.1004-2.2332-.3014-.971-.4066-1.8429-.3147-2.6155.0914-.7723.3204-1.4519.6873-2.0383.3665-.5864.8363-1.0769,1.409-1.472.5724-.3952,1.1907-.6955,1.8548-.9019.6539-.203,1.2821-.3492,1.8846-.4382.6023-.0894,1.0982-.102,1.4874-.038.0461.1486.098.3416.1554.5792.0574.2374.1126.4946.1662.7712.0533.2768.0991.5559.1375.8374.0386.2811.0618.5402.0701.7766l-.6094.1893-1.5338-2.0011c-.1245-.0155-.2995-.0018-.525.0408-.2255.0431-.4477.098-.6655.1657-.4066.1264-.7734.3271-1.1004.6023-.3276.2755-.5802.6337-.7585,1.0745-.1783.4413-.2647.9677-.2592,1.5799.005.6121.1328,1.3196.3814,2.122.2031.6544.4651,1.2274.7864,1.72.3213.4923.6806.8883,1.0781,1.1889.3972.3003.8233.4997,1.2774.5974.454.0983.9139.0749,1.3798-.0697.1485-.0458.2981-.1058.4491-.18.151-.0737.2895-.1524.4159-.2353.1264-.0824.2341-.1646.3227-.2468.0889-.0816.1466-.1485.1742-.2005l-.8675-2.7945c-.2639.0603-.5219.0863-.7745.0774-.2525-.0083-.4946-.0362-.7267-.0839l-.1753-.565,4.0579-1.2594.1753.5651c-.0616.1166-.1551.2353-.2807.3556s-.2948.241-.507.3612l1.0334,3.3295Z" style="fill: white;stroke-width: 0px;"/>
        <path d="m72.9327,7.224l4.7935-.0046.0006.5918c-.3423.2178-.7364.3689-1.1821.4524l.0052,5.9916c.0006.5084.058.9339.1728,1.2763.1143.342.2804.6198.4985.8322.218.2123.4803.3653.7864.4583.3061.0933.6511.1392,1.0353.1391.3423-.0004.6558-.0497.9415-.1489.2851-.0984.5338-.2574.7466-.4753.2123-.2182.3754-.5034.4894-.8562.1137-.3529.1703-.7888.1697-1.3079l-.0052-5.8362c-.2387-.0512-.4852-.1241-.7394-.2171-.2545-.093-.4648-.1967-.6304-.3106l-.0008-.5913,3.86-.0036.0003.5913c-.1866.1351-.3941.2444-.6221.3273-.2285.0832-.4513.1508-.669.203l.0052,5.8519c.0014,1.3279-.3478,2.3372-1.0475,3.0277-.7.6909-1.6878,1.0368-2.9641,1.0378-1.3905.0015-2.4645-.309-3.2224-.9307s-1.1377-1.6173-1.1388-2.9871l-.0055-6.0697c-.2078-.0311-.4259-.0853-.6539-.1628-.2285-.0777-.4361-.1732-.623-.2872l-.0006-.5915Z" style="fill: white;stroke-width: 0px;"/>
        <path d="m95.3966,9.2566l3.7689.8329-.1308.5926c-.2263.1094-.4687.1962-.7273.261-.2589.065-.496.1054-.7121.1214l-2.1117,9.5597-1.2917-.2855-3.6524-8.9351-.3494-1.3044-.0458-.0104-.1317,1.246-1.3996,6.3374c.1913.0952.3983.2288.6207.3997.2222.1715.4063.3367.5517.4967l-.1275.5774-3.7537-.829.1278-.5778c.2092-.0807.4342-.1503.6757-.2085.2412-.0582.4861-.0972.7347-.1161l1.8299-8.2844c-.1849-.1257-.3671-.2612-.5476-.4073s-.3392-.2926-.4767-.4397l.1275-.5774,3.2826.7251,2.9652,7.2855.4104,1.4612.0607.0135.212-1.321,1.1189-5.0648c-.2252-.1344-.4391-.2851-.6414-.4517-.2023-.167-.3751-.3348-.5181-.5043l.1308-.5929Z" style="fill: white;stroke-width: 0px;"/>
        <path d="m103.6156,23.6004l-4.4874-1.8555.2261-.5464c.4709-.0524.9164-.0309,1.3375.0644l3.3662-8.1402c-.18-.1083-.3594-.244-.5385-.4079-.1794-.1641-.3307-.3276-.4538-.4912l.2261-.5464,4.4871,1.8557-.2261.5464c-.2161.0345-.4424.0447-.6782.0312-.236-.0135-.4554-.045-.6594-.0959l-3.3662,8.1405c.1758.1176.353.2528.5316.4048.1783.1526.3318.3171.4609.4941l-.2261.5464Z" style="fill: white;stroke-width: 0px;"/>
        <path d="m118.3812,20.7152c-.1827-.1766-.3467-.3598-.491-.549-.1446-.1892-.2691-.3657-.3737-.5301l.3155-.5004,3.3436,2.1091-.3155.5001c-.1499.004-.3323-.0132-.5476-.0511-.2156-.0375-.4292-.0927-.6412-.1652l-8.2833,6.4232-1.4027-.6637,1.9591-10.633c-.1482-.1544-.289-.32-.4228-.4967-.1341-.1765-.2421-.3457-.3238-.5079l.3155-.5001,4.3836,2.7649-.3155.5001c-.1938-.0239-.4046-.0589-.6332-.105-.2285-.0458-.4576-.1107-.6873-.1943l-1.4281,6.349-.4778,1.4283.0262.0168,1.0869-1.0811,4.913-4.1142Z" style="fill: white;stroke-width: 0px;"/>
        <path d="m130.2979,29.5558c-.3373.3236-.6964.6475-1.0778.9725-.3814.3242-.7524.6156-1.1131.8737l-.4618-.4404.7496-1.8232-2.1057-2.0089-2.632,2.759,1.3737,1.3108,1.3226-.3944.3605.3438c-.3135.4037-.6851.8308-1.1145,1.281-.43.4504-.8498.8531-1.2597,1.2074l-.3602-.3435.353-1.3622-1.3737-1.3108-2.7932,2.928,2.1959,2.0946,1.961-.8609.4618.4405c-.106.1714-.2299.3616-.3718.5702-.1421.2088-.2948.4177-.4587.6272-.1637.2092-.3331.4169-.5081.623s-.3411.3915-.4987.5566l-6.0924-5.8119.4085-.4275c.1918.0538.3952.1263.6103.2164.215.0905.4231.203.6246.3376l6.0805-6.3736c-.1217-.1733-.2399-.3686-.3552-.586-.1151-.2175-.2009-.4245-.2567-.6213l.4082-.4281,5.9232,5.6505Z" style="fill: white;stroke-width: 0px;"/>
        <path d="m127.6941,41.9027c.0952.2247.1626.4375.2029.6374.04.2004.0773.3958.1115.5878l-.4838.3403-2.7582-3.9204.4838-.3403c.233.1147.4366.2381.6114.3689.1747.131.3384.2692.4918.4151l7.2044-5.0686c-.2051-.4902-.3268-.9248-.3652-1.3036l.4838-.3403.9492,1.3494c.1195.1695.2594.3596.4201.5698.1609.2107.3309.43.5112.6587.1797.2284.3627.4615.5484.699.186.237.3596.4702.5206.6993.3285.4665.5782.9347.7491,1.4043.1711.4696.2501.9212.2368,1.3559-.0132.434-.1245.8421-.3337,1.2241-.2095.382-.5272.7233-.9536,1.023-.6141.432-1.2219.6377-1.823.6165-.6011-.0211-1.1819-.2214-1.7419-.601-.2926.7128-.5804,1.4551-.8639,2.2252s-.533,1.5486-.7485,2.3345l.0251.8959-.4328.304-1.4954-2.1254.0323-.8413c.1888-.7161.4827-1.4404.8821-2.1714.3991-.7316.8134-1.419,1.2423-2.0632l-.7254-1.031-2.9815,2.0974Zm7.7848-4.5202c-.186-.2646-.3616-.46-.5266-.5862l-3.5511,2.4986.531.7549c.3064.4353.722.6976,1.2478.7865.5258.0892,1.0944-.0807,1.7055-.5108.3138-.2207.5531-.4529.7182-.6966.1645-.2436.2652-.493.3014-.7478s.0163-.5088-.0599-.7615c-.0765-.2527-.1985-.4983-.3663-.7369Z" style="fill: white;stroke-width: 0px;"/>
        <path d="m133.7591,51.3924c-.0574.1508-.0886.341-.0936.5708-.005.2295.0629.5005.2031.813.2335.5204.5628.8929.9876,1.1176.4251.2244.8788.2281,1.3616.0116.3503-.157.5937-.4004.7306-.7288.1366-.3287.2283-.708.2738-1.1381.0458-.4297.0787-.8824.0985-1.3576.0196-.4754.0858-.9427.1979-1.4025.1121-.4597.3003-.8828.565-1.2685.2644-.386.6666-.7002,1.2062-.9424.4637-.208.9045-.3036,1.3215-.2861.4173.0174.804.125,1.1603.3235.3563.1986.6801.4764.9718.8348.2915.3581.5435.7738.756,1.2471.2592.5771.4601,1.1326.6028,1.6657.1424.533.2178,1.0364.2258,1.5105-.1935.0756-.4187.1566-.6754.2433-.2567.0871-.5142.1656-.7725.2364-.2586.0704-.5034.1323-.7358.1849-.2318.0531-.4275.0923-.5865.1184l-.2611-.5818,1.6505-1.5295c.0058-.1397-.0182-.3316-.0709-.5762-.0533-.2447-.1328-.4859-.2396-.7236-.1791-.3992-.435-.6902-.7668-.8722-.332-.1823-.6969-.1841-1.0944-.0055-.3599.1615-.6141.4122-.7623.7525-.1488.3403-.2506.7283-.305,1.1637-.0549.4357-.0936.9005-.1159,1.3954-.0226.4946-.0894.9727-.2009,1.4333-.1118.4609-.2937.8852-.5465,1.2721-.2525.3874-.6395.6978-1.1598.9314-.9467.4252-1.8214.434-2.624.0264-.8026-.4071-1.4822-1.2313-2.0389-2.471-.1358-.3032-.2539-.6169-.3541-.9411-.1005-.3251-.1789-.6395-.236-.9437s-.0955-.5796-.1151-.8268c-.0199-.2472-.0108-.4419.0279-.5839.2216-.0885.4667-.1699.7345-.2445.2677-.0748.5368-.1473.8068-.2171.2699-.07.5291-.1326.7775-.187.2484-.0545.4684-.097.6602-.1256l.2611.5821-1.8258,1.519Z" style="fill: white;stroke-width: 0px;"/>
        <path d="m137.0745,64.4686l-1.3052-4.6774.5697-.1588c.3312.3385.5893.7029.7737,1.093l8.4848-2.3675c-.0259-.2087-.0298-.4337-.011-.6758s.0541-.4619.1068-.6598l.5697-.159,1.305,4.6773-.5694.1588c-.1606-.1492-.308-.3209-.4427-.5148-.1352-.1942-.2454-.3868-.3309-.5784l-8.4848,2.3676c.0157.2109.0185.4336.0086.6685-.0102.2341-.045.4567-.1046.6674l-.5694.1588Z" style="fill: white;stroke-width: 0px;"/>
        <path d="m138.5898,74.4213l-.5951-5.3206.5879-.0658c.1054.1968.2167.4222.3337.6751.117.2531.2111.5116.2824.775l8.7854-.9823-.2007-1.7941-2.7554-.6942-.0709-.634c.2015-.0646.4598-.1352.775-.212.3147-.0771.6409-.15.9776-.2192.337-.069.6715-.1325,1.0044-.1906.3326-.0584.6177-.1005.8551-.127l1.0999,9.8371c-.2473.0277-.5374.0494-.8694.0657-.3326.0164-.6702.0282-1.0141.0351-.3436.007-.6754.0075-.9945.0017-.3191-.0062-.589-.0177-.8104-.0348l-.0709-.6337,2.5343-1.2859-.2007-1.7941-8.7851.9823c-.0218.2737-.0541.5464-.0966.8171-.0431.2712-.1043.5153-.1844.7334l-.5876.0657Z" style="fill: white;stroke-width: 0px;"/>
        <path d="m149.1069,86.6102l-.3527,3.7965-.589-.0544c-.0784-.1634-.1529-.3451-.223-.5443-.0701-.1996-.1112-.3987-.1239-.5978l-4.9897-3.4959-3.502-.3257c-.04.2047-.1134.4038-.2197.597-.1065.1932-.2197.3729-.3392.5389l-.589-.0548.4438-4.7728.5887.0546c.0767.1844.146.3886.2087.6136.0624.2245.1035.4573.1225.6989l3.4868.3243,5.5754-2.6389c.0632-.2342.146-.4532.2487-.657.1021-.2041.2081-.3899.3174-.5566l.5887.0545-.4723,5.0831-.589-.0549c-.0693-.1524-.1363-.3253-.202-.5189-.0654-.1936-.1123-.4169-.1408-.6695l-4.359,1.8298,3.9571,2.4937c.0737-.2331.1617-.454.2647-.6634.103-.2089.2026-.3872.3-.5346l.5887.0545Z" style="fill: white;stroke-width: 0px;"/>
      </g>
      <path d="m78.3884,0C35.215,0,0,35.2115,0,78.3849s35.215,78.3919,78.3884,78.3919,78.3919-35.215,78.3919-78.3884S121.5688,0,78.3884,0Zm0,153.7371C36.8883,153.7371,3.0397,119.8886,3.0397,78.3849S36.8883,3.0363,78.3884,3.0363s75.3522,33.8485,75.3522,75.3486-33.852,75.3522-75.3522,75.3522Z" style="fill: white;fill-rule: evenodd;stroke-width: 0px;"/>
      <path d="m131.7461,127.5329c.0671-.1678.0485-.6825-.0373-1.0443-.0932-.3543.0373-.5072-.138-.7496-.1753-.2462-.097-.1902-.2499-.3693-.1492-.1827-.2163-.2648-.5296-.5146-.3133-.2462-.6378-.6303-.869-.787-.2275-.1603-.1455-.1044-.3506-.2983-.1977-.1976-.1977-.2163-.3245-.3543-.1193-.1342-.1007-.2723-.1231-.3953s.138-.373.2797-.5072c.1417-.1305.0298-.2723.3431-.2461.3133.0335.1492.0708.4513-.1716.2946-.2499.1566-.179.1156-.3282-.0336-.1492.0448-.2648.0559-.3618.0149-.097.0858-.1865.2872-.373.2089-.1865-.041-.1715.1305-.4066.1716-.2349-.097-.2499-.1082-.358-.0186-.1082-.0597-.1641-.2648-.3133-.2014-.1567-.2648-.0634-.4811-.1343-.2089-.0708-.2909.0634-.4737.2387-.1865.1753-.1119.1902-.1641.4103-.0597.22-.2275.414-.3543.593-.1231.1791-.1082.2051-.2163.4625-.1082.2424-.1119.2536-.4214.552-.3058.3095-.1455.2312-.3431.2573-.2014.0224-.2499-.235-.3282-.4438-.0746-.2089.0298-.2425.0224-.511-.0112-.2723.0373-.3021.0709-.4363.0336-.1418.0074-.179.0112-.3991.0075-.22-.0746-.3394-.0932-.5258-.0261-.1827-.2312-.2201-.3543-.3021-.1193-.082-.1827-.0149-.3282-.1641-.1529-.1529-.1044-.1604-.1716-.3133-.0634-.1417.0149-.1902.0336-.2611.0224-.0634.097-.1865.2126-.2909.1156-.1082.0671-.2089.1194-.3207.0485-.1044.1455-.2238.2238-.4065.082-.1865,0-.1343.0149-.2238.0075-.082.0448-.2387.0746-.373.0336-.1305.041-.2611.0224-.4625-.0186-.2051.097-.1977.1194-.317.0224-.1268.0298-.1939.0709-.414.0373-.2163.0186-.2312.0783-.3991.0597-.1603.0112-.179.1082-.3244.097-.1455.1007-.2201.0522-.3916-.0522-.1753-.0224-.2089.0112-.3319.0373-.1268-.041-.1268-.1119-.1902-.0671-.0597-.138-.1492-.2499-.2312-.1082-.0746-.1753-.0224-.3394-.0149-.1716,0-.1566-.0447-.496.0224-.3394.0746-.1865.1902-.4587.4326-.2685.2537-.1604.4252-.235.5446-.0709.1081-.1156.2983-.1939.552-.0783.2499-.0709.1939-.1604.3207-.0858.1231-.1268.1715-.2648.276-.1343.1082-.138.0411-.1939.0187-.0597-.0187-.0858-.097-.1492-.1566-.0634-.0709-.0746-.1791-.097-.2648-.0261-.0746.0149-.1567-.0709-.3394-.0821-.1902.0336-.358.0634-.4513s.0298-.1566-.0746-.3991c-.1007-.2573-.097-.4139-.1268-.4811-.0261-.0672-.0261-.22-.0373-.4438-.0149-.2275.1007-.2424.1007-.5109-.0037-.2723-.0858-.276-.1044-.4737-.0149-.1902-.0336-.2872-.0559-.4625-.0187-.1827.0671-.3767.0112-.6266-.0597-.2424.0224-.1716-.0373-.5184-.0597-.3468-.1007-.2797-.0858-.5222.0112-.2312-.0298-.1529-.0336-.3207-.0037-.1715-.0373-.1082-.1641-.2723-.1343-.1566-.1156-.1231-.3469-.1455-.2312-.0186-.2089-.0597-.4438.0858-.2312.1417-.138.1641-.3096.3506-.1678.1827-.041.0559-.22.3021-.179.2499-.0858.1679-.3245.373-.2349.2126-.2312.5446-.3058.7944-.0783.2424.0298.2611-.0224.4289-.0485.1716-.0709.2946-.0932.5371-.0187.2461-.0932.2685-.1343.4065-.041.138-.1305.1716-.3841.3991-.2462.235-.0895.3394-.0895.3394,0,0-.0112.1231.0895.22.1007.1007.1007.0671.2424.1865.1417.1082.2387.1231.1082.2947-.1306.1603-.1827.1454-.3394.235-.1566.0932-.3021.0895-.4289-.0112-.1231-.1044-.1753-.2014-.2163-.2835-.0373-.0783-.0597-.3618-.056-.4214,0-.0559.1567-.2275.235-.358.0709-.1306.0746-.1827.0746-.2648,0-.0784.0261-.2313.0485-.3692.0224-.138.0261-.1268-.0224-.2536-.056-.1231.0336-.3058.0075-.4028-.0224-.097.1305-.3469.1343-.4961.0112-.1529.1417-.2573.082-.3804-.0634-.1268-.1268-.2126-.2909-.3916-.1641-.179-.3133-.3319-.4662-.4438-.1566-.1082-.1529-.0858-.2275-.1156-.0746-.026-.1865.0821-.3394.0149-.1529-.0671-.2312-.1193-.3021-.1865-.0709-.0596-.2872-.2088-.3804-.2163-.0895,0-.1343.0261-.2685-.0672-.1343-.0895-.179-.0336-.3655.0858-.1827.1156-.179.2163-.1678.3432.0149.1156.0522.0634.097.1491.0448.0895-.0112.082.0261.1977.0336.1119.0373.1715.1193.2797.0821.1044.2611.5669.3618.6751.1007.1119.1902.179.2461.358.056.1715.041.4065.041.5594,0,.1566.0746.4363.1231.6415.0522.2126.0336.3804.1753.5333.1417.1492.2238.4961.2238.7347,0,.2499.0634.2275-.0597.4215-.1231.1977-.1082.2014-.2238.3058-.1156.1082-.235.1827-.373.2387s-.2611.2051-.4401.373c-.1827.1715-.235.2275-.3245.3543-.0783.1231.1455.2462.2089.2909.0671.0373.1865.082.317.1156.1305.0336.2238-.0075.4364-.0149.22-.0112.2163.1194.1977.2275-.0149.1082.0522.1604.0075.2574-.041.1044.0075.276-.0149.4923-.0224.2088.1082.2014.0448.5259-.0597.3319-.4177.2461-.4811.1603-.0634-.0895-.2126-.2685-.2723-.4363-.0522-.1678-.1343-.2126-.2573-.4438-.1194-.2312-.1566-.2648-.2014-.373-.0373-.1081-.0709-.1827-.1716-.3431-.1044-.1566-.1156-.1976-.1902-.3021-.0746-.1044-.0597-.1417-.2014-.3506-.138-.2051-.0261-.1305-.1566-.2685-.1306-.1454-.1604-.1343-.2947-.1379-.1343-.0149-.2611-.0373-.4326-.0448-.1641-.0037-.1604.0075-.2797.0299-.1268.0261-.1827.0671-.2872.0746-.1044.0037-.2573-.0075-.3841.0671-.1343.0634-.3282.0373-.511.0821-.179.0485-.2089.1268-.4625.3916-.2499.2574-.1082.3506-.1193.4252-.0149.0783-.0336.1678.0112.22.0448.0485.1007-.0112.2014-.0261.1044-.0149.0895.0075.2573.0858.1828.0858.2424.1566.2984.1976.0559.0336.1268.0224.2536.1455.1231.1231.1865.1641.2648.2051.0783.0484.2275.1193.3394.2088.1044.0895.2238.0485.3394.1231.1156.0746.2947.276.3842.3655.0895.0821.179.179.2723.2835.097.1007.2685.179.3953.3059.1231.1268.276.1753.455.3916.1827.2126.3058.4065.358.5109s.0932.276.2909.4513c.1902.1902.2499.2387.3543.3953.1082.1715.1007.1604-.0187.358-.1156.2014-.0597.0485-.1827.1119-.1305.0522-.1753.0411-.2685-.0336-.0932-.082-.1529-.1753-.1977-.2574-.041-.0895-.0559-.2237-.1977-.4177-.1455-.1939-.2238-.2648-.3506-.4438-.1231-.1679-.2424-.3095-.3021-.373-.0597-.0672-.2275-.1604-.4214-.2424-.1865-.0746-.2462-.0075-.4476-.0484-.2014-.0411-.4774.0895-.6676.2909-.1902.2088-.0709.3842.1417.6005.2163.2201.511.2648.6116.2984.1044.0298.2648.1343.4998.1715.235.0373.2946.1455.3469.2051.0522.0559.2014.2499.317.4065.1156.1641.1044.2611.097.4699-.0074.2088-.0149.235-.0149.5371-.0075.3058-.0186.4625-.0373.6862-.0149.2201.1231.2611.3394.2947.2126.0336.2872-.041.5147.0299.22.0708.3431-.2462.511-.3991.1716-.1641.3207-.3879.3357-.4625.0112-.0783.1529-.4737.1604-.69.0037-.2238-.0858-.2088-.1604-.3692-.0783-.1641-.1641-.3916-.1828-.4625-.0186-.0634-.1082-.3506-.1454-.4625-.041-.1081.0074-.2536.0112-.5781s.0821-.2499.1156-.3095c.0261-.056-.0037-.0932-.1007-.1231-.1007-.0261-.1865.0523-.2536.0634-.0634.0075-.0074-.0336.0597-.2462.0671-.2088.1455-.0932.1827-.0746.0373.0224.1641.0559.1641.0559,0,0,.0858-.0932.1604-.1603s.0746-.0671.2089-.0559c.138.0074.2648,0,.2648,0,0,0,.1417-.0672.3207.1267.1827.1977.1082.2163.0037.373-.097.1492-.097.1791-.1529.3991-.0559.2201.0187.4066.0783.4849.0671.0634.2536.2051.3991.2909.1455.0895.3655-.1044.4774-.2387.1044-.1305.1865-.4326.2089-.5109.0149-.082.0037-.4066.1194-.6005.1156-.1865.1678-.1939.3245-.2648.1567-.0671.0895-.0485.3618.0187.2723.0634.3655.0075.5445.0187.1827.0149.1827.1939.1156.3543-.0634.1529-.0037.1454-.0709.2909-.0746.1529-.1082.2312-.2648.4811s-.2238.2611-.4625.4848c-.235.2201-.373.3432-.5818.5371-.2126.1977-.2499.235-.4476.4625-.2014.2312-.0298.1044-.1007.358-.0671.2611-.0709.3021-.0597.4699.0112.1715.0448.22.2648.276.2201.0522.5222.0261.7198.0261s.3021-.138.6116-.4476c.3058-.2983.4103-.3878.5557-.8242.1454-.4326.22-.6452.3431-.813.1194-.1641.1529-.3543.1827-.4811.0261-.1343.097-.3096.1753-.537.0783-.2387-.1268-.2089.1567-.5035.2835-.2983.1678-.2648.2648-.2983.097-.0336.2014-.0261.3916-.1529.1902-.1194.317-.3655.3431-.4849.0261-.1231.0186-.3953-.0336-.6452-.0522-.2461.0634-.4923.0783-.537.0149-.056.0858-.1603.2461-.3059.1567-.1454.1455-.0671.2797-.1193.1306-.0522.2387.0672.3245.1492.0746.0895.0821.0746.0522.2685-.0298.2014.0186.1343.0746.3916.0597.2573-.1268.6602-.1939.8317-.0709.179-.0112.2573-.2089.5221-.1939.2686-.1566.511-.3543.731-.2014.2126-.0261.22-.2163.414-.1939.1865-.0336.138-.056.3282s0,.1492-.0373.3655c-.041.22-.0149.2163-.1156.3842-.097.1641-.056.1604-.317.399-.2611.2499-.0559.0932-.2126.3245-.1529.2312-.1417.2461-.1641.3431-.0149.1044.2051.1603.3319.2126.1268.0484.3207-.1865.5222-.373.2051-.1827.2723-.2387.4364-.2574.1566-.0224.1678.1305.3282.3058.1604.1865.0373.1044.0448.2089.0037.1156-.082.552-.082.552,0,0-.2201.1044-.0746.2685.1417.1678.1529.1678.2648.2424.1007.0672.0597-.0186.2089.1455.1454.1566.0522.1603.0485.2312-.0112.0709-.0149.0672-.0932.1827-.0746.1082-.1007.1641-.1529.2275-.056.0634-.3058.3543-.496.5594-.1939.1939-.138.2387-.3357.4326-.1977.1939-.0932.1305-.2648.3767s-.1305.2462-.2424.3841c-.1156.1343-.1007.1343-.2984.2909-.2089.1567-.1678.2313-.2648.3506-.0895.1119-.2051.22-.3021.373-.1007.1567-.1306.2611-.1492.3655-.0186.1007.2611.2723.3879.3916.1194.1194.2723.1119.5594.0821.2947-.0261.4438-.0448.5483-.1082.1082-.0709.2461.0037.4848-.1604.2461-.1715.4252-.2797.4252-.5333,0-.2611.1455-.4662.2163-.593.0709-.1305.0746-.3953.2163-.6788.1417-.2984.1977-.4588.4103-.7385.2126-.2834.2536-.1455.4065-.1044.1529.0372.2163.097.3245.2088.1082.1156.2835.1976.5445.3543.2573.1529.3021.1753.3767.2424.0746.0746.2163.1977.3245.3655.1119.1604.0186.1455.0522.3021.0336.1641-.0895.1268-.1977.4363-.1082.3171-.1902.3469-.2872.4215-.0932.0746-.4065.2685-.649.4177-.2387.1492-.2648.1194-.4699.2313-.1977.1119-.2648.2014-.2051.2685.0597.0634.0224.0484.2238.0484.2051.0037.455-.0484.649-.0634.1939-.0187.5147.0075.731.0149.2163,0,.5296-.0336.8653.0112.3357.041.5856.0634,1.1599-.0597.5706-.1231.2872-.552.3543-.7236Zm-10.1781-9.4546c-.2424.2574-.0746.097-.3581.3692-.2835.2536-.3357.3021-.4326.3842-.0932.0784-.2462.0485-.2909.0261-.0448-.0261-.1305-.0634-.1492-.1603-.0186-.1082.0298-.2872.0261-.4737-.0037-.1865-.1007-.1119.0522-.373.1604-.2611.2089-.3954.2909-.4811.0895-.0932.1678-.1902.3021-.1231s.2461.1156.3357.1679c.0932.0559.2387.1081.3133.2723.0783.1603.1566.1379-.0895.3916Zm1.7753-.6042c-.041.0895-.1082.373-.2835.3021-.1716-.0709-.1604.0037-.2611-.0709-.0932-.0783-.1566-.1492-.3021-.2685-.1492-.1231-.3245-.0858-.3021-.22.0149-.1306.0522-.1715.2089-.2909.1566-.1156.3394-.1641.2499-.3208-.0932-.1529-.2499-.3655-.3245-.4625s-.1529-.2014-.1939-.2797c-.041-.0783-.1417-.1603-.0672-.2536.0672-.0932.2051-.0634.3021.0075.0932.0746.1268.0783.2349.1939.1082.1193.1231.1231.2611.2723.138.1491.2051.2238.3058.3356.1007.1119.0821.235.1044.4215.0261.1902-.0298.1902.0149.3431.041.1604.097.2126.0522.2909Zm.373-1.7045c-.1417-.1641-.0634-.1827-.1902-.3506-.1268-.1678-.2089-.2648-.3394-.4028-.1343-.1417-.3357-.1007-.3916-.138-.0559-.0373-.2126-.1417-.2126-.2387-.0074-.097-.0597-.0709.0709-.2088.1268-.1268.1082-.0373.2051-.2611.097-.22.1007-.3804.1641-.4886.0634-.1082.0037-.2499.1678-.1679.1641.0821.1156,0,.2611.138s.1455.1306.2312.2275c.0858.097.1455.1343.1865.3394.041.2089.1343.5781.2014.7012.0671.1305.1044.414.0895.5632-.0149.1455-.0037.3282-.0075.4998-.0037.1753.0522.1939-.0261.2238-.0783.0298-.1827.0969-.2238-.0485-.041-.1603-.0448-.22-.1865-.3879Zm.593,2.1445c.0783.2163.0112.3506,0,.3991-.0074.0448-.0261.2872-.1268.3245-.1044.0485-.2051.0261-.2947-.0783-.0932-.1082-.0932-.0634-.1044-.1977-.0075-.138.0224-.276.0485-.3506.0298-.0783.0448-.1417.0485-.2275.0037-.0784-.0448-.0485.0037-.1567.0485-.1082.0597-.1902.1454-.276.0932-.0858.0597-.1007.1194-.1529.0597-.0485.1343.0261.1604.056.0224.0261.0783.1305.0634.2909-.0075.1567-.1455.153-.0634.3692Z" style="fill: white;fill-rule: evenodd;stroke-width: 0px;"/>
      <path d="m45.2912,117.9948c-.0367-.1075-.2095-.2928-.2095-.2928,0,0-.1797-.1933-.2084-.2591-.0326-.0623-.077-.1181-.1457-.1982-.0687-.08-.2527-.2662-.3394-.3551-.0864-.0926-.119-.1064-.1989-.1873-.0801-.0772-.2121-.2107-.2991-.296-.0867-.0889-.1362-.1263-.2944-.2582-.1665-.1212-.1691-.1364-.3202-.2638-.1514-.1238-.3373-.1867-.4532-.1881-.1196-.0017-.224-.1032-.3688-.2152-.1477-.1235-.3737-.2006-.4755-.2383-.1053-.0417-.4086-.2332-.5703-.3204-.1728-.0881-.323-.1294-.5765-.2386s-.3574-.2667-.5629-.4171c-.202-.1464-.3273-.1223-.4944-.1874-.1711-.0617-.1866-.2013-.4447-.4941-.2619-.2931-.2624-.1884-.4593-.3531-.19-.1567-.4021-.5619-.5793-.6914-.1729-.1366-.3775-.3468-.5714-.3055-.1905.0453-.211.2644-.2833.4272-.0726.1665-.0886.2289-.0714.3948.0253.159-.0292.4803-.147.7481-.1186.279-.1432.1611-.3017.2275-.1622.0662-.2443-.0822-.4156.0057s-.2899.2209-.4389.4078c-.1484.1794-.3076.4029-.3076.4029,0,0-.0706.1891-.1432.2584-.0655.0735-.1075.0853-.2665.2077-.1627.1223-.4267.1993-.5119.2863-.0926.0864-.5905.4336-.6828.5163-.0995.0784-.5133.3048-.7218.4872-.2113.1709-.9142.6071-1.0083.6635s-.1413.0378-.3212.0914c-.1793.0461-.5418-.105-.6085-.1139-.0698-.0166-1.0537-.4546-1.1444-.4915-.0907-.0369-.4265.0497-.6137-.1442-.1872-.1938-1.1392-.4612-1.2938-.5927-.15-.1424-.6432-.3933-.8593-.552-.2198-.1589-.7583-.5517-.8945-.6781-.1316-.1373-.6071-.327-.8412-.4945-.2343-.1638-.4632-.1065-.6347.0337-.1684.148-.3401.6323-.4053.7994-.0692.1705-.1063.9008-.1142,1.0049-.0125.115-.0847.6182-.0709.7801.0181.1548.3393.6992.4111.787.0718.0878.2441.2319.4608.4804.2244.2453.5047.1995.6938.2214.1928.0222.6831.0672.9206.1414.2375.0743.8124.1369.9303.1123.1147-.0324.8033.0614,1.0934.2295s.4315.2761.3806.3545c-.0509.0784-.5522.4216-.6677.5138-.1164.1033-.7913.4182-.8625.469-.0749.0503-.3855.1986-.6163.282-.2342.0793-.8354.3102-.9698.3561-.1384.0492-.4064.1297-.4064.1297,0,0-.246-.0113-.3441.0485-.0984.0635-.1765.1062-.3086.1709-.1324.0684-.1224.0355-.1874.0044-.0578-.0269-.1373-.0142-.1373-.0142,0,0-.2008-.0154-.2723-.0583-.0713-.0465-.4345.008-.587-.0037-.1485-.0151-.7624-.107-.8965-.1621-.1302-.0586-.8453-.0983-1.0055-.2041-.16-.1095-.7376-.2845-.7854-.2957-.0475-.0149-.5164-.2415-.784-.5575-.2639-.3157-.2561-.2216-.3153-.2299-.0584-.0194-.1025-.1275-.1554-.2176-.0529-.0901-.2679-.3123-.3208-.4023-.053-.0901-.0327-.1109-.0081-.1876.0286-.0801-.1019-.0864-.2003-.1201-.0987-.03-.1564.089-.1759.1474-.0274.0652.1091.2851.2394.4409.1339.1562.124.3835.2671.6152.1391.2351.2982.3557.31.4464.0198.0838.3306.519.4439.6511.1093.1355.7014.611.8908.7265.1897.1118.6383.262.8057.4207.1677.155.6426.3035.6978.3152.0552.0117.6448.1278.7893.1464.141.0145.7475.1544.9483.1698.1968.0188.5427.0939.6877.1536.1413.0595.6302.0258.7758-.0192.149-.041.2159-.0845.2159-.0845,0,0,.2085-.0851.4193-.1512.2145-.0659.375-.1097.4793-.1541.1004-.041.4467-.2164.5228-.2331.0726-.0207.4284-.2216.6752-.3673.2542-.1452.2729-.0951.409-.1632.1401-.0716.3023-.1863.3881-.2322.0864-.0532.3152-.1105.3755-.1171.0681-.0098.3904-.1647.5428-.2503.1639-.0885.4919-.1719.5454-.1865.0612-.0177.5651-.1999.6472-.246.0746-.0467.3836-.0754.4697-.0277.0867.0403.1164.0912.0905.1865-.0291.0875-.2621.4924-.3178.5854-.0597.0964-.5392.6433-.643.7288-.1001.0859-.3207.4767-.3959.6281-.0797.1623-.387.7073-.4988.8484-.1115.1374-.3604.7018-.399.7662-.0455.0564-.365.6155-.4136.6641-.0486.0487-.496.6167-.5606.679-.0612.0664-.3183.7387-.3363.8271-.0174.0809-.126.4243-.1279.6448-.0013.2131.0103.5506-.0346.6482-.0483.0936-.034.6408.0175.8467.0513.2097.2684.7462.4215.9449.1537.1913.3972.382.6761.5006.2747.1257.7075.2374.9508.4804.239.2502.8833.4828.9994.5777.1159.0986.2349.1564.4698.3127.2387.1566.3963.15.6329.3327.2398.1904.582.3138.6938.3672.1159.05.6284.4408.7695.5526.1408.1155.1276.0435.1986.0938.0704.0578.1733-.0653.1733-.0653,0,0-.0615-.0758-.1405-.1678-.0753-.0918-.1294-.2156-.2636-.368-.1371-.1639-.5692-.5784-.6199-.6497-.0504-.0749-.2038-.2699-.3297-.4329-.1225-.159-.233-.3283-.3009-.4681-.065-.1284-.1162-.2408-.1417-.3474-.0298-.0995-.1681-.3458-.1967-.4116-.0361-.0663-.1935-.4038-.2102-.4799s-.0886-.407-.0837-.4702c.0045-.0595-.0958-.6544-.1062-.7637-.0175-.1136.0339-.3939.1098-.7509.0791-.3493.0473-.3255.0249-.5704-.0187-.2445-.1074-.3074-.0949-.3738.0131-.0738.1288-.4615.1382-.5841.01-.1302-.0327-.2082.0396-.371.0686-.1631.0053-.3138.0233-.4509.0145-.141.075-.4917.075-.4917,0,0,.03-.196.0222-.2901-.0078-.0941.0113-.3433.0261-.4394.0142-.0887.1566-.336.1566-.336,0,0,.0925-.3295.0704-.4809-.0224-.1476.0525-.2952.0685-.3576.0194-.0584.1623-.3616.1775-.4129.0146-.0438.1795-.3416.2584-.4927.0786-.1474.0683-.208.1209-.3087.0529-.1044.3294-.2479.3294-.2479,0,0,.118-.2229.1326-.2667.0148-.0475.0597-.1937.1112-.2309.044-.0377.2402-.2547.2984-.4298.0617-.1711.1137-.2644.1635-.3279.0495-.0598.2641-.3239.4086-.4027s.2388-.0416.3696-.0391c.1307.0025.8648.1859,1.0791.2695.2106.0834.4143.1589.6366.2357.2143.0837.2644.1137.3762.1672.1159.05.3874.168.7044.2782.3095.1097.3499.1689.4538.2292.0993.0712.2089.1544.3233.223.115.0612.1986.0451.2698.0431.0709.0017.1871.0966.3348.2201.1514.1238.1554.0717.2735.092.1136.0311.1456.0036.2016-.0444.0523-.0484.0929-.1388.1427-.2023.0466-.0712.1232-.144.1646-.2455.0483-.0936.0328-.1845-.0262-.2938-.0587-.113-.095-.0784-.1974-.1086-.103-.0229-.1496-.0975-.2332-.1787-.0833-.0849-.2667-.1813-.3216-.2453-.0544-.0715-.3297-.3357-.4124-.428-.075-.0955-.1809-.227-.2642-.3606-.0913-.1267-.2124-.3043-.3097-.4502-.0856-.1524-.2296-.3243-.336-.4483-.1062-.1278-.1749-.2079-.2132-.2445-.0266-.0431-.0055-.1238-.0236-.2299-.0215-.1101.0022-.1757.0339-.248.0314-.0687.0885-.2289.0773-.3756-.0109-.1505.1331-.42.17-.4621.0369-.0421.068-.0584.1201-.103.0561-.0481.0732-.0281.1971-.0336.127.0022.1519.0191.1519.0191,0,0,.1934.0635.2601.0723.0664.0125.2294.0325.385.0519.1553.0231.4011.0868.4649.1814.0675.0949.4022.1205.5321.1342.1262.0134.3313.1188.5244.2346.1857.1152.6091.2036.7224.2385.1179.024.1256.0208.1256.0208,0,0,.2896.1755.5556.121s.7556.2934.826.3025c.0629.0086,1.0819.1351,1.1966.1027.1141-.0249.6954.0532.8093.0806.107.0194.2891-.1125.3372-.1538.0478-.0375.1653-.0584.1284-.1622Zm-7.9904.743c-.032.0761-.0102.1339-.0545.2726-.0486.146-.0357.1731-.0686.2117-.0329.0386-.1086.1002-.1647.1482-.0563.0519-.1633.081-.2185.0693-.0629-.0086-.0818-.0063-.1353-.0402-.0578-.0269-.0999-.0638-.1144-.0687-.014-.0123-.0029-.0114-.0655-.0723-.0664-.0612-.0615-.0758-.0973-.0972-.0358-.0215-.0469-.0223-.0715-.0429-.024-.028-.1047-.0978-.1299-.1109-.0172-.02-.012.0103-.0478-.0598-.0361-.0663-.0389-.0778-.0418-.1379s-.0029-.1087.0068-.1379c.006-.0295.0397-.0792.0537-.1156.0134-.0289-.0466.0226.0314-.0686.0821-.0947.0575-.0667.1021-.1119.016-.0137.0197-.0134.0197-.0134.0009-.0112.0132-.0252.0418-.0567.0892-.0904.0377-.0532.0938-.1013.0595-.044.0632-.0437.0872-.0644s.0232-.0095.036-.0309c.0091-.0217-.0117.0066.018-.0397.0334-.0461.0011-.0149.0377-.0532.0366-.0383.0292-.0389.0569-.0593.0237-.0169.0069.008.0689-.0209.0583-.0291.0123-.014.1067-.0254.091-.0155.1316-.0087.1396-.0155.0223.0017.2054.1504.2595.2256.0544.0715.065.0798.0556.2025-.0097.1264-.0248.129-.003.2354.0181.1061.0249.1141-.0025.1793Z" style="fill: white;fill-rule: evenodd;stroke-width: 0px;"/>
      <g>
        <path d="m49.0921,126.9218c.128-.0201.3141-.0133.4417-.0265.1234-.0183.4138-.0252.6534.048.2359.0832,1.0818.1962,1.1879.1513.1074-.048.3644-.2926.4659-.5386.1006-.2478.1536-.331.2775-.5789.123-.251-.0274-.256-.117-.5619-.0873-.3109-.1047-.401-.2551-.6136-.1482-.2144-.2588-.4257-.4125-.7567-.1463-.3278-.7293-.8829-.8116-.9378-.08-.0485-.1971-.1033-.209.241-.0105.3461,0,.7384-.1381,1.1326-.1436.3923-.2003.7517-.3799,1.0242-.177.273-.6278.823-.7288.9282-.1093.1065-.2469.4687-.2469.4687,0,0,.1486.0352.2725.0201Z" style="fill: white;fill-rule: evenodd;stroke-width: 0px;"/>
        <path d="m58.463,128.987c-.1119-.0895-.2499-.1753-.358-.2461-.1082-.0671-.0709.0298-.552-.2387-.4737-.2686-.1492.056-.4065-.0522-.2574-.1082-.317-.1082-.5595-.2238-.2499-.1231-.3133-.2014-.3878-.3282-.0709-.1194.0111-.1306.0746-.3431.0597-.2163.1827-.5222.22-.6751.041-.1492.1678-.6676.1865-.8131.0149-.1455-.2014-.5222-.2275-.7198-.0298-.1865-.3767-.5706-.869-.7906-.4886-.2201-.4177.0224-.5408.097-.1231.0746-.2909.3021-.4252.4848-.1417.1828-.3431.4065-.5445.6042-.2052.1977-.5073.6079-.5781.7124-.0746.1081-.6191,1.1599-.8951,1.2942-.276.1305-.1156.0634-.3767.1044-.2611.0485-.276-.041-.6489.0261-.373.0709-.4551-.0373-.5632-.0447-.1082-.0112-.3431-.0299-.3841.0372-.0485.0671.0932.1418.3245.2909.2275.1455.2051.1902.2461.332.041.1455-.0634.3319-.0634.4289-.0037.0932-.0597.2947-.2014.5109-.1417.22-.7795.9958-.9958,1.0891-.2126.097-.4326.0522-.6154-.2275-.1865-.2685-.041-.2946.041-.5146.0895-.2164.0634-.3916-.0447-.6303-.1119-.2499-.1045-.1641-.4476-.4625-.3394-.3021-.5035-.8541-.5221-1.0629-.0186-.2052.2387-.4886.1753-.6266-.0634-.138-.2238-.0074-.4289.0709-.2051.0783-.0559.0261-.2238.0522-.1716.0224-.1566.0336-.2872.0261-.1305-.0037-.1119.0299-.2946.1641-.1827.1343-.1343.1455-.2275.3171-.0932.1753-.0261.2797-.1417.5482-.1231.2723-.1567.3282-.2462.4699-.0858.138-.2462.5557-.5259.9846-.2723.4215-.8317,1.3464-1.0294,1.5926-.1977.2425-.7497.7422-.9958,1.0294-.2424.2909-.6975.6341-.8951.8243-.194.1827-.5744.2685-.8019.4736-.2275.1977-.5072.1567-.7086.3171-.1977.1641-1.0518.179-1.0518.179,0,0-.1454.0224-.1939.0895-.041.0708-.1678.3543-.2424.4625-.0708.1119-.0373.3879-.138.5147-.1044.1268-.1678.0485-.3096.2088-.1417.1641-.0149.2648-.0149.2648,0,0,.1567.3767.1828.511.0298.138.2685.3245.6266.3655.358.0373.7795-.2238,1.0331-.3245.2648-.1044.511-.2574.6602-.3133.1567-.0559.6378-.3879.8205-.5222.1828-.1305.3058-.235.3581-.3133.0522-.082.3655-.3879.593-.593.2238-.1977.2461-.2872.3617-.4475.1194-.1529.3431-.2835.5558-.4961.2125-.2125.3468-.4438.3878-.5109.041-.0634.179-.1529.455-.5184.2723-.3655.2089-.2947.4998-.7459.2947-.455.3879-.4923.5855-.675.1977-.1828.5707-.3729.8802-.5594.3133-.1865.2723-.0597.828.1454.5595.2014.358.2499.5371.4438.1753.1939.0857.2499.1976.6117.1082.3655-.0783.4214-.1492.5333-.0746.1044-.1492.138-.3469.2984-.2014.1603-.2014.0671-.2723.1156-.0709.0559-.4363.0559-.5109.1977-.0746.1455-.0447.3394-.0186.4699.0261.138-.0075.3655-.0857.5334-.0896.1566-.2499.5221-.4438.7571-.1939.2499-.3469.4849-.5222.6639-.1716.179-.4364.731-.5296.9361-.097.2088-.0485.2275-.2462.2946-.1977.0672-.2685.0597-.4625.1231-.2014.0709-.1156.0299-.4065-.082-.2909-.1119-.3842-.0373-.6079-.1044-.22-.0709-.5594-.2275-.8802-.2947-.3208-.0709-.3208.0224-.3208.0224,0,0,.0336.22.0709.3394.0336.1156.1828.5446.2163.787.0373.2312.1865.3916.2984.4587.1044.0708.3356.2238.4848.2238.1529,0,.4625.0597.5744.0597.1156-.0037.179.0187.3319.2312.1492.2163-.0522.6117-.1641.787-.1193.1827-.22.2163-.4177.3133-.2014.1044-.4252.3953-.5146.4699-.0896.0858-.6154.4215-.7832.4699-.1604.0485-.1305.2088-.1455.2909-.0186.0821-.0634.4476-.1044.69-.041.2461.097.5296.3096.7907.2201.2574.5631.3804.7907.4699.2275.0895.5073-.0784.6676-.1716.1567-.0932.5333-.4139.6191-.5184.0821-.0932.3581-.5445.4364-.7049.0895-.1604.1567-.3842.2499-.5222.0858-.138.1417-.2201.317-.4961.179-.2723.1454-.22.2984-.4289.1529-.2126.0932-.1753.2089-.3506.1156-.1791.22-.2909.3953-.5297.1715-.2349.3729-.2424.5743-.3804.2051-.138.4513-.0448.7795-.1977.3319-.1567.6005.0186.8988.0932.2946.0746.3618,0,.6602.0746.2984.0746.5557.2088.9473.3394.3879.138.5818.1641.7049.1492.1305-.0149.7236.0783.9026.0932.179.0186.5594.1156.8019.0932.2424-.0186.2461-.1716.4214-.4476.179-.2723-.0037-.2573-.3581-.5445-.3468-.2797-.2051-.1529-.2685-.2909-.0634-.1379-.0709-.2387-.276-.4326-.2051-.1865-.2834-.2424-.3431-.358-.0559-.1156-.0447-.2201-.0746-.414-.0261-.194-.0746-.3058-.1827-.5109-.1156-.2126-.1716-.25-.276-.4103-.1007-.1678-.0746-.2089-.2984-.3133-.2163-.1044-.097.1567-.1231.2536-.0224.097-.0523.5258-.0523.5258,0,0,.0448.5781.0038.7049-.0447.1305.0261.317-.0597.4737-.0821.1567-.0336.0522-.3506.3357-.3133.2797-.787.1156-.9175.0858-.1343-.0299-.4065-.0858-.7384-.1641-.3282-.0784-.3879.0372-.6378-.1381-.2461-.1827-.0857-.1007-.0857-.1007,0,0,.0186-.2387.0447-.399.0298-.1604.2648-.3506.2946-.4476.0224-.1044-.0373-.2424-.0373-.2424,0,0-.2499.0895-.3767.1044-.1268.0186-.3916.276-.6489.4401-.2611.1641-.1977-.0447-.1716-.1454.0261-.1007.3021-.2947.4215-.4103.1156-.1268.2946-.0448.5669-.317.2685-.2723.3394-.1119.4699-.2797.1305-.1716.1902-.2686.261-.317.0709-.0522.0671-.0746.3618-.5296.2909-.4513.2163-.1268.4699-.22.2499-.0895.2499-.0932.3991-.1529.1529-.056.138-.0224.4289-.1231.2947-.1044.3021-.082.4886-.138.1902-.0484.1455-.1267.1902-.2051.041-.082-.0895-.1044-.1902-.1044-.0895-.0037-.0783.0186-.3132-.0635-.2312-.082-.2909-.1342-.4588-.1267-.1678.0037-.2163-.0932-.2461-.1679-.0224-.0709-.0187-.0858.0857-.2424.0932-.1491.0709-.0671.2014-.1939.1305-.1343.2125-.1678.3953-.358.1865-.1939.276-.2238.552-.2909.276-.0671.3879-.0634.5072-.1044.1231-.0372.2946.0411.4401-.0372.1492-.0783.2387-.0373.3693-.0373.1268.0112.2238.1268.2909.1529.0597.0186.1865.0037.3506.0597.1641.0559.1939.0484.2984.0783.1044.0261.3431.1156.4849.2014.138.0932.3096.0708.4066.0932.1007.0261.3356.0783.4774.1529.1417.0709.4252.1381.5595.1119.1343-.0336.4513-.1007.496-.2275.0447-.1268-.1678-.3431-.2461-.3953-.0821-.0485-.4476-.2275-.4476-.2275,0,0-.2089-.0597-.4065-.1119-.1977-.0484-.3842-.0932-.6415-.1007-.2611-.0074-.4737-.1305-.4737-.1305,0,0-.3357-.1007-.6378-.2574-.2984-.1604-.3096-.0821-.3842-.1118-.0783-.0336-.138-.1716-.138-.1716,0,0,.0038-.0709.1679-.2014.1566-.1306.2089-.1194.2983-.1753.097-.0559.3208-.1044.4177-.138.1007-.0299.2536-.0932.3879-.1194.1343-.0298.4177-.1716.5818-.1678.1678.0075.2089-.0187.3879-.0634.179-.0373.2313-.0858.5445-.0746.3208.0112.2872-.0858.2872-.0858l.2685-.0597s.4214-.2312.5669-.2797c.1455-.041.2014-.1566.3767-.2014.179-.0372.4139-.22.5482-.4625.138-.2386-.0708-.1865-.1828-.2797Zm-2.4093.1604c-.0261.0858-.0597.1529-.1156.2387-.056.082-.0522.1902-.1567.1977-.1007.0149-.2722-.0672-.3879-.0485-.1156.0149-.1902.0634-.2387.0746-.041.0075-.1716.1604-.3506.0821-.1827-.0783-.2424-.0858-.276-.1231-.0299-.0299-.1007-.1902-.0447-.3059.0447-.1081.1417-.2835.1641-.2983.0224-.0111.097-.0261.1641-.0895.0709-.056.1082-.1193.138-.1641.0336-.0484.0597-.1119.0783-.1119.0261,0,.0821-.0559.1678-.041.0895.0112.1305-.0485.1939-.0336.0709.0037.0597-.0075.1567.0485.0969.0596.1976.0746.2685.1454.0671.0709.1119.0895.1678.1715.0708.0672.1007.1679.0708.2574Z" style="fill: white;fill-rule: evenodd;stroke-width: 0px;"/>
      </g>
      <path d="m118.9909,127.53c-.2338-.3329-.1756-.2709-.2504-.4586-.0752-.1868-.0239-.297-.0573-.4385-.0355-.1415.0303-.3248.0419-.4539.0154-.1321-.0227-.135-.0628-.2547-.0389-.1261-.0855-.1167-.165-.2427-.0752-.1261-.1979-.1509-.1979-.1509,0,0-.0111.0701-.1064.1539-.0936.0902-.0321.0513-.0645.1615-.0321.1107-.0406.2739-.0709.3607-.0325.0902-.0855.1197-.1709.2581-.0872.1355-.1889.1355-.356-.0248-.168-.1615-.097-.1491-.2128-.359-.1141-.2051-.0538-.2641-.0855-.4697-.0342-.2034-.0132-.3419-.1261-.5329-.1158-.1868-.1017-.0838-.3573-.2829-.2581-.1944-.3645-.0543-.4368-.006-.0718.0449-.0551.1863-.0312.3637.0256.1705-.0496.3637.0342.6603.0786.297.0543.5222.0419.9453-.0128.4257-.0098.306.0607.612.0731.3064.0778.5227.0372.8351-.0402.309.218.4675.3662.5671.15.0979.2385.2128.5449.1615.3047-.0449.4017.1462.5415.2521.1368.1086.0692.0124.5466.006.4769-.0094.2624.0325.5786-.2799.3094-.3107.1188-.3325.1697-.6714.0513-.3449.0209-.3761-.2115-.7116Z" style="fill: white;fill-rule: evenodd;stroke-width: 0px;"/>
      <path d="m73.913,137.9912c-.0261-.1696-.0832-.1866-.08-.3594,0-.1678-.1605-.5336-.1605-.5336,0,0-.182-.1148-.3951-.1866-.2117-.0796-.5514-.1527-.7051-.1495-.1477.005-.176.0283-.2967.0832s-.2204.0315-.2794.0549c-.0599.0347-.2085.0695-.3086.1381-.1029.0764-.2538.1111-.3708.0832-.1189-.0334-.4188-.0681-.5395-.0133-.1171.0581-.1221.1509-.5793.1509-.454,0-.1541.1116-.2282.1148-.0754.0037-.3434-.0247-.4655-.0448-.1207-.0215-.2661.123-.4897.0901-.2227-.0352-.5039.0265-.6644.1061-.1591.0933-.3036-.0517-.4289-.096-.128-.0421-.1939-.0736-.609-.3493-.4156-.2794-.433-.1797-.7732-.283-.3406-.1129-.379-.0997-.5286-.0965-.1491.0037-.4458.2561-.6753.3978-.2286.1477-.177.321-.2254.5551-.0521.2346.193.5656.331.6886.1363.1216.2917.3457.4463.5322.1491.193.209.2958.3054.4888.0988.2012.2455.3242.5363.3525.2885.0347.5711.0517,1.0302.0768.4591.0197.5139-.0636.7791-.193.2661-.1216.3091-.208.7316-.4143.4225-.2012.369-.1116.5222-.1349.1555-.0247.3127-.2208.5199-.2108.2085.0146-.011.2442-.0864.3758-.0759.1344-.2506.3242-.3054.3621-.053.0448-.2071.1513-.3031.193-.0951.0416-.2455.1381-.5094.2913-.2602.1477-.5619.3722-.796.5587-.2405.1861-.4202.2574-.4883.4024-.0658.1413-.4399.3493-.5212.4591-.0809.1097-.6438.2757-.8207.4339-.1765.1596-.4024.1564-.6196.3173-.2218.1564-.8573.401-.9414.5738-.0878.1715-.6465.2414-.8793.2794-.2332.0366-.4028.0037-.7229-.0663-.3205-.0713-.6159-.1317-1.0128-.1513-.3964-.0283-.4312-.0069-.6639-.0549-.2304-.0485-.4179-.0215-.5574-.0485-.1445-.0247-.3855-.0247-.7599-.0562-.3726-.027-.5071.2844-.5418.5007-.0343.2176.0123.1628.0604.2657.0448.0965.0677.2762.0741.401.011.1331.0091.2611-.0119.3443-.0206.0832-.0969.4074-.0878.5519.005.1381.2396.2629.4124.3379.1669.0764.3118.1792.5496.3141.2437.1413.3626.3374.5569.3891.2003.0517.6022.176.7078.2144.1079.0416.1788.1664.3374.2277.1523.0617.3534.1033.4988.1097.1463.0037.4367.0352.6104.0151.176-.0183.2451-.0896.3402-.1248.0946-.0416.2858-.2076.5011-.3941.2181-.1797.3882-.1861.5007-.2474.1107-.0549.1271-.2894.4175-.3114.2908-.0265.39-.2341.5962-.299.2085-.0668.7105-.2478.9003-.3278.1893-.0796.2903-.0965.5921-.1596.2999-.0617.369-.075.5528-.1381.187-.0613.5615-.0297.8107-.0613.2538-.032.4751-.1582.6836-.1381.2071.0215.5089.048.8075.0796.2977.0302.5286.1134.7791.1349.2483.0201.4554,0,.759.048.31.0416.2359-.0896.3242-.2309.0914-.1381.31-.1696.3502-.321.0357-.1513.0946-.3726.1331-.524.0389-.1527-.0242-.1861-.0494-.2625-.0238-.0686-.053-.208-.2359-.3178-.1847-.1097.0416-.0764-.2346-.1994-.2762-.1248-.2945-.2149-.5057-.3045-.2103-.0864-.2826-.0064-.3681.0352-.0864.0444-.2195.0764-.3434.1376-.1248.0649-.3095.2547-.4225.2926-.1139.032-.4472.0453-.5697.0668-.1221.0265-.3822,0-.6566-.0832-.273-.0832-.1733-.0617-.3004-.1513-.1262-.0832-.0366-.1047.005-.2213.0416-.1248.2053-.0997.2794-.1445.0759-.0485.1573-.0764.3466-.3562.1884-.2757.2364-.176.3969-.1861.1637-.0101.331-.2163.5711-.4037.2396-.1866.2876-.1715.4467-.2195.1605-.0453.567-.3946.8157-.401.2451-.0169.3516-.1733.6086-.2661.2551-.0965.5487-.331.7398-.369.1879-.0366.3882-.0718.7019-.2615.316-.1861.2935-.3873.3077-.6132.0114-.2213-.0448-.321-.0416-.6968,0-.3809-.0983-.2844-.1171-.449Z" style="fill: white;fill-rule: evenodd;stroke-width: 0px;"/>
      <g>
        <path d="m95.645,144.3418c-.2012-.2876-.4307-.3009-.8431-.3393-.4079-.0366-.3498.0933-.8331.2144-.4828.1216-.8637.1998-1.085.2446-.2218.0485-.0965.1797-.0183.2629.0809.0896.3118.2062.4788.3475.1714.1413.4764.4106.5697.6868.0932.2762.2185.6968.2551.9661.0375.2693-.0398.3109-.0481.4207-.0109.1097.0416.1998.3137.4074.2712.2062.1637.0352.2949-.0832.1349-.1143.005-.0681.5798-.1994.5775-.1381.3434-.08.5683-.1948.2263-.1097.1509-.0878.3063-.2195.1559-.1312.1943-.3557.2117-.6218.0151-.2611-.0704-.3859-.2035-.9725-.1367-.5821-.3452-.6337-.5473-.92Z" style="fill: white;fill-rule: evenodd;stroke-width: 0px;"/>
        <path d="m96.6765,133.8099c-.041-.2275-.0783-.1715-.1641-.2797-.0895-.1156-.138-.1678-.2611-.3283-.1194-.1603-.3096-.123-.496-.0969-.179.0224-.2163.0597-.5259.1641-.3133.1081-.2797.2387-.5109.3244-.2313.0783-.4066.3133-.5259.3991-.1193.0932-.2946.2089-.399.2648-.1082.0597-.2313.1417-.3916.3096-.1603.1603-.2424.1678-.4438.2648-.2014.1044-.1231.1231-.3096.1305-.1828,0-.1306-.0746-.1604-.276-.0261-.1865.1567-.276.2163-.4327.0634-.1529.2163-.2163.373-.4028.1603-.1902.1567-.1455.3879-.2611.2275-.1156.4364-.4363.5744-.6154.1417-.1753.0895-.2499.0932-.5222.0038-.2686-.0149-.3953-.1529-.8094-.1417-.414-.2499-.2946-.5408-.414-.2909-.1156-.179-.2536-.6564-.22-.4737.0336-.2946.1454-.6676.1902-.373.041-.5669.6377-.6266.7683-.0634.1305-.1231.235-.2126.3953-.0895.1567-.082.2126-.3207.4103-.2388.1977-.3431.5557-.3916.6564-.0447.1007-.2014.2163-.3058.3655-.1007.1455-.2573.1417-.4699.2201-.2126.082-.2126.0372-.2984.0111-.0821-.0298-.2051-.2424-.2275-.3207-.0186-.0821-.0298-.1417-.0075-.3543.0186-.2126.2201-.4066.2424-.5968.0298-.1865.1156-.4401.0709-.6974-.0485-.2537-.1828-.6266-.5669-.7422-.3804-.1119-.3878-.1604-.5482-.2797-.1567-.1081-.3133-.2611-.6826-.2834-.3767-.0224-.2163.0932-.3245.1678-.1118.0746-.5669.2238-.6079.2835-.041.0559-.0112.3021.041.5146.0522.2126.0709.373.138.6863.0634.3133.2052.6005.2536.7123.0448.1231.0895.5296.1193.8168.0299.2872.0671.5557.0896.675.0112.1194-.0746.5408-.0783.7161-.0075.1753-.1343.1156-.2126.1753-.0708.0634-.3394.276-.3394.276,0,0-.1567.1119-.2499.1716-.0932.0634-.0932.1454-.0932.1454,0,0-.041-.0522-.2834-.0522-.2424.0037-.2313-.0075-.3245-.0485-.097-.0373-.1678-.0895-.3021-.1641-.1305-.0783-.2313-.0261-.3618.0187-.1343.041-.1119.1082-.1305.2909-.0149.1828-.0112.2312.0075.4251.0149.2014-.0597.276-.0634.5259-.0075.2461.0037.3095.0746.552.0746.2424.1828.3506.3991.5557.2089.2088.2275.1977.3581.1678.1268-.0299.5035-.1119.593-.3021.0857-.1865.1603-.5184.2685-.6564.1007-.1454.1156-.276.1716-.6638.0597-.3767.235-.2872.317-.3729.0783-.0821.2201-.3282.2201-.3282,0,0,.0522.138.1231.2387.0783.1044.1529.1343.1902.3245.041.1977.0522.1603.1007.3729.0485.2126.1753.5819.1716.7049-.0037.1231-.0261.1156-.179.3395-.1492.2163-.4624.4251-.5557.4886-.0895.0709-.4252.4065-.5073.4662-.0858.0634-.2573.2126-.4998.3133-.2424.0895-.8466.6489-.9398.731-.0932.0895-.3581.235-.4102.2872-.056.0522-.3431.1902-.4588.2909-.1231.1007-.4588.1603-.7236.2499-.2648.0858-.4363.1007-.6862.153-.2462.0559-.3953.097-.7422.1865-.3468.0932-.1193.1417-.1641.276-.0447.1268-.0111.2387-.0485.4028-.0373.1604-.0746.2014-.041.4252.0298.2275.1119.2238.3133.2685.1976.0448.261.1566.5109.4215.235.2648.4028.1827.634.2462.2312.0597.3991.0671.7683.1305.3655.0634.4699-.3506.8541-.5147.3916-.1603.4401-.5408.6862-.8914.2462-.3618.4252-.7086.6565-.8727.2312-.1678.1827-.3096.3282-.4438.1455-.1343.2387-.25.4401-.3954.1902-.1417.1492-.0634.2835-.0485.138.0111.2089.1678.317.2163.1082.0448.1678.1641.2461.2163.0783.0522.2238.1342.3581.1454.1343.0149.1343-.0559.3804-.1753.2536-.1194.1641-.1678.2909-.2984.1231-.1305.0709-.0112.2648.0037.194.0112.0783.1977.0783.1977,0,0-.041.1492-.0821.2797-.041.1343-.0597.0895-.1231.1641-.0597.0709-.0671.0821-.1827.138-.1156.0596-.2499.1417-.3395.2014-.0932.0671-.1902.1231-.2871.2424-.0932.1119-.2089.1939-.4065.3431-.2089.1529-.2126.179-.2499.317-.0298.1417.0746.2984.1082.3692.0261.0709.1194.2238.317.2872.1939.0671.2387.0485.3879.0075.1492-.0411.2685-.0559.4737-.1268.2052-.0708.1567-.1193.3357-.2126.1865-.0858.235.1156.235.194,0,.0858-.0597.2238-.0783.3245-.0149.1044-.1715.1529-.3133.2424-.1417.0932-.2201.1231-.1753.2834.0448.1567.0858.1641.2424.1455.1604-.0261.2536-.097.4028-.0634.1454.0298.276.0634.3431.2611.0671.1976.0224.1865-.0485.2573-.0746.0746-.1082.097-.179.1678-.0709.0746-.1007.1082-.1641.2126-.0671.1007-.3692.179-.5109.2275-.1455.0522-.414.0559-.5035.0783-.0895.0224-.1678.1678-.1678.1678,0,0-.138.2648-.1193.4139.0224.153.0298.4998.1454.593.1156.097.235.1529.4475.2014.2089.041.2014-.0261.2238.1491.0261.179-.0037.4103-.0522.5744-.0485.1603-.4438.4961-.6005.6154-.1567.1081-.4998.3058-.6229.3841-.1193.0783-.4438.1567-.5706.2163-.1268.0597-.1268.0336-.2461-.0075-.1194-.0448-.1268-.0858-.4475-.179-.317-.0895-.3282-.0149-.4662.0261-.138.0372-.097.1081-.1194.2424-.0186.138-.0709.2126-.0671.2611.0075.0485-.0112.2499.0336.4513.0485.2051.1343.22.2611.3804.1193.1566.179.2946.179.2946l.2536.1156s.2536.0485.3804.2984c.1268.2536.317.2275.3953.2163.0821-.0112.4215-.0597.4811-.1529.0597-.0895.1977-.1305.261-.1828.0634-.0485.276-.2536.332-.3356.0597-.0783.1828-.2275.2909-.3394.1082-.1119.0896-.2349.2126-.455.1193-.2275.1156-.2797.1193-.3842.0075-.1007.041-.3692.2275-.4363.1828-.0671.1007.0075.1567.0299.0559.0261.1865.0708.2499.1193.0746.0485.1828.1939.1828.1939,0,0,.2051.2163.276.2835.0709.0746.1417.1492.2462.3991.1082.2648.2126.2573.2536.414.0447.1678.2089.3058.3319.3245.1268.0112.3357.0224.4625,0,.1231-.0336.1081-.1641.1939-.2685.0895-.1082.1491-.1939.2499-.276.1007-.0895.2424-.194.3282-.2947.0895-.1044.3804-.5669.3953-.6191.0112-.056-.0224-.4961-.0447-.5968-.0224-.1044-.1119-.6714-.1417-.8727-.0261-.2088-.0969-.2536-.1492-.4885-.0559-.2462-.1007-.4476-.1529-.6863-.056-.2424-.0597-.3991-.0821-.6415-.0224-.2498.0671-.3357.1007-.455.0373-.1194.0969-.138.1827-.317.0858-.1753.1045.0299.2126-.2983.1082-.3245.1118-.3804.1529-.593.041-.2163.0149-.179.0373-.3431.0187-.1529,0-.1865-.1193-.1902-.1231,0-.097.0485-.2014.1268-.1007.0746-.0672.0746-.3096.1269-.235.0484-.0895.0112-.2648.0149-.1715.0037-.1343-.0261-.2163-.2947-.0746-.2685.0597-.1827.2014-.3469.138-.1641.1044-.1231.2387-.2648.1343-.1454.1231-.1603.1678-.2499.0522-.0932.0932-.0746.0783-.2835-.0224-.2051.0522-.1231-.1492-.2387-.1976-.1156-.1902-.1939-.2349-.2909-.041-.097-.0336-.2574.0037-.3431.041-.0932.0896-.1902.1977-.2872.1082-.097.1231-.2051.1865-.3357.0671-.138.0336-.2163.0112-.3058-.0261-.0896-.1641-.1865-.2424-.3506-.0858-.1678-.2275,0-.3357.0261-.1119.0261-.123.1603-.1715.399-.0485.235-.1567.1268-.2499.1604-.1007.0298-.0522.0075-.138-.097-.0858-.1044-.0523-.2201-.0336-.2984.0187-.0746.1567-.3655.2126-.4513.0597-.0932.3506-.3133.5296-.4625.1865-.1492.414-.2163.6377-.2835.2238-.0783.3059-.0149.4476-.3879.1417-.3692.2723-.1716.3282-.358.056-.1865-.0447-.4103-.0932-.5893-.0447-.179-.1007-.2163-.1753-.3207-.0783-.1044-.1417-.2089-.3469-.2723-.2014-.0672-.4849.1193-.7683.2312-.2797.1082-.2424.1567-.6303.2909-.3953.1231-.2909.2424-.317.3842-.0186.1305-.1268.3394-.1231.5147.0038.1753-.041.3469-.0559.4662-.0149.1156-.0746.455-.1306.5371-.0597.082-.179.317-.2275.5109-.0448.194-.235.2313-.455.455-.2275.2313-.2835.2611-.3058.1604-.0261-.1007-.0447-.3245-.0447-.4513.0037-.1268.0858-.138.1529-.2387.0671-.1044.056-.2648.1417-.4438.0857-.194.0783-.1716.1641-.2984.0821-.1269.138-.2685.1566-.3319.0187-.0672.0634-.1567.0448-.3282-.0037-.0448.0037-.0709.0075-.082-.0187.0149-.0634.041-.1828.0559-.2797.0261-.2014.1716-.2872.2947-.082.1231-.1566.1827-.22.3096-.0671.1342-.2126.0746-.4103.22-.1939.1417-.138.0373-.2499-.0858-.1045-.1193-.1268-.2611-.1343-.3953-.0075-.1343.1678-.2723.2312-.3319.0597-.0597.2499-.194.4849-.317.2424-.1305.317-.2946.4737-.4177.1566-.1268.4252-.2723.6377-.3618.2126-.0895.1604-.235.4066-.3059.2461-.0708.3916-.2723.6489-.3282.2611-.0597.5856-.2051.7124-.2574.1268-.0448.4139-.0672.5855-.1231q.1753-.0523.5073-.1082c.3282-.0597.2461-.0708.3841-.1007.1417-.0261.3319-.0522.7459-.1641.414-.1082.3842-.1268.5557-.179.1791-.056.5632-.2388.7646-.3245.2014-.097.3356-.1082.3953-.3282.0634-.2126.1193-.2574.1193-.4103,0-.1566.0746-.22.041-.4401Zm-6.2434,11.9199c.1156.1753.1305.3319.1529.5595.0187.2238.1343.5818.1641.731.0299.1492.1902.4513-.1865.5482-.3692.1007-.4065.2313-.6489.1343-.2387-.1007-.2946.22-.3655-.1977-.0671-.4215.1231-.2872.1231-.5632-.0037-.2797-.0112-.5333.0634-.7571.0709-.2163-.1082-.2387.2387-.3543.3506-.1119.3431-.276.4588-.1007Zm-.0709-9.8089c-.0224.0895-.0783.2051-.2275.3059-.1454.0932-.2573.0522-.3916.1641-.1305.1156-.2051.1939-.2387.2685-.0336.0746-.1529.1231-.2499.1044-.097-.0298-.1567-.0037-.1828-.0671-.0186-.0597-.0336-.1678-.0634-.3842-.0299-.2201-.1007-.2947-.0485-.4475.0559-.1455.0597-.1007.0895-.3692.0336-.2648.0932-.2984.0783-.3842-.0112-.082-.0485-.0672.0298-.1119.0896-.0448.0746.0522.2163.1156.1343.0597.1753.1603.3245.1603s.1118-.0373.2834.0149c.1753.0522.1828.1082.2685.1865.0821.0783.1306-.0932.1716.097s-.0336.2611-.0597.3468Zm1.4546-2.6145c-.0634.1716-.0821.1455-.0821.2947-.0037.1492-.0746.1939-.1305.3319-.0597.1417-.2238.22-.2461.317-.0224.1044-.0224.1455-.097.1977-.0783.041-.0634.1865-.1902.1902-.1305,0-.2275.0149-.2574-.0783-.0224-.0932-.1007-.1343-.0671-.2872.0373-.1492.1268-.179.138-.2909.0112-.1231.0298-.1156.1007-.2685.0746-.1455.1268-.1044.2014-.3059.0746-.1977.138-.2088.2014-.3021.0634-.0932.0224-.1343.1343-.2014.1118-.0709.1118-.1679.1864-.0634.0709.1082.0895.1007.1119.1977.0112.097.0522.097-.0037.2685Z" style="fill: white;fill-rule: evenodd;stroke-width: 0px;"/>
      </g>
      <path d="m116.7455,134.1696c-.1587.0613-.2295.1262-.5007.3091-.2702.1797-.1413.1733-.193.208-.0549.0416-.3306.2309-.433.2862-.1047.0613-.2222.1413-.4307.2593-.209.123-.2035.123-.4143.1715-.2117.0544-.5171-.0617-.6292-.0201-.1125.0347-.1623.0297-.3054.048-.1413.0101-.2295.0069-.5007.075-.2684.0631-.2099.0151-.2876.0151-.0722,0-.1312-.128-.4156-.1728-.2867-.0517-.2711.0165-.5363-.1033-.2675-.1248-.4348-.1248-.5135-.1381-.0768-.0183-.1989.0069-.2615-.0347-.0594-.0384-.0663-.0384-.3438-.1646-.2821-.1317-.2885-.0151-.4559-.0151-.1669,0-.2487.0247-.4225.0151-.1797,0-.4156.0581-.61.1262-.1939.0668-.2314.0549-.3937.0599-.166.0069-.1436-.0562-.2016-.1596-.0594-.1029-.1107-.2131-.1623-.4623-.0535-.2414.1015-.2762.1737-.4623.0764-.1797.1797-.1998.3315-.3278s.262-.1413.3653-.2378c.1006-.0965.128-.2144.2725-.4106.1399-.1962.278-.2547.3795-.4787.1006-.2213-.0101-.1216.112-.2963.1262-.1696.1413-.2245.2501-.3658.1033-.1381.2414-.1797.3626-.3525.1175-.1664.1564-.1664.2862-.283.1312-.1093.2538-.1792.31-.3374.064-.1564.385-.3306.5281-.5171.1477-.1943.0654-.1596.1568-.2661.0983-.1065.1189-.1628.2364-.2725.1139-.1184.1962-.1966.1898-.3109-.0101-.1166-.021-.0617-.1143-.2199-.0928-.1596.016-.1628-.0581-.2423-.0741-.0818-.1504-.193-.2144-.2762-.0631-.0846-.1481-.1299-.2894-.2743-.1395-.1532-.2743-.2364-.3951-.2497-.1189-.0133-.1102.0032-.2725.0133-.1605.0119-.1655-.0512-.4083.0535-.24.1061-.1431.0581-.4591.0133-.3141-.0448-.1619.048-.4074-.0069-.2428-.0599-.331-.1079-.4065-.0663-.0759.048.0155.1116.069.2044.0549.085.0791.1962.1363.2547.0599.0631.1308.0796.2154.2442.0896.1628.1157.3361.2021.5222.0855.1866.0375.1715-.1413.3891-.1829.2213-.0626.1065-.1815.3178-.1203.2062-.112.2478-.3324.4143-.2195.1678-.2611.2309-.3576.5039-.0997.2675-.1171.2259-.3132.3923-.1957.1728-.1509.1765-.2487.3274-.1015.1481-.1417.155-.406.3077-.2652.1449-.0905.0485-.2542.1065-.1646.0581-.1454-.0101-.2295-.1614-.0846-.1596-.0398-.118-.0608-.2076-.0206-.0869.016-.0768.0101-.1664-.0101-.0882-.0274-.1783-.0773-.2926-.0434-.1198-.0914-.241-.1687-.4106-.0759-.1683-.1491-.2679-.1687-.3031-.0192-.0315-.1248-.2144-.2332-.4202-.1088-.2213-.1678-.353-.1779-.4211-.0064-.0732-.0773-.241-.1152-.3726-.0416-.1312-.0055-.1376-.0576-.2757-.0498-.1381-.1532-.2282-.0841-.3658.069-.1449.0503-.353.0485-.4143-.005-.0549-.0384-.08-.0832-.118-.0375-.0485-.1189-.0818-.1898-.2062-.0754-.128-.0805-.2062-.1509-.3342-.0709-.128-.1783-.3013-.2556-.4357-.0796-.1363-.0846-.2643-.0846-.364,0-.1015-.0722-.1385-.1257-.2314-.0521-.0901-.059-.0732-.176-.2913-.1175-.2126.0174-.0846-.1847-.2478-.1962-.1577-.1513-.0279-.3292-.1728-.1728-.1445-.337-.1962-.4947-.203-.1623-.0096-.2195.0137-.3109-.0197-.0869-.0315-.1815-.07-.3534-.1317-.1724-.0631-.3036-.0796-.4106-.0928-.1065-.0151-.0951-.0032-.4344.0069-.3402.0165-.3127.1861-.3589.2725-.0434.0846-.0727.1445-.198.3992-.1189.2561.0407.5487.0841.6186.038.0681.1568.2062.2432.3374.0841.1381.1107.1129.2551.2826.1449.1733.198.3525.2446.4591.0466.0997.0078.1545.1248.2995.1129.1527.2103.3242.2826.3621.0741.032.2295.321.305.4458.0809.123.2812.4275.3758.5889.0933.1596.2332.4623.3297.6868.0988.2144.3333.6004.4207.7517.0846.1527.112.1596.2126.3109.1015.1628.2222.401.2844.5171.0626.118.1481.2977.2894.5386.1431.2382.1312.3928.1811.5373.0485.1445.0869.1898.2346.4421.1472.2515.1747.3146.2346.4892.059.1797.0059.0928.0366.2428.0256.1513-.0448.0613-.2259.2757-.1866.2131-.193.3095-.3073.4508-.112.1413-.2135.1728-.3342.3978-.118.2277-.1326.0997-.2849.4056-.1573.3045-.1788.2661-.4083.5702-.2327.2995-.1536.2213-.2812.4175-.1262.193-.0448.0864-.2327.2826-.192.193-.235.2478-.2643.3443-.0274.0901-.3585.2945-.4293.331-.0722.048-.1619.08-.3882.208-.2277.1344-.128.1097-.1504.2126-.0238.0983-.1756.1532-.2012.2529-.0224.0997.0018.2094.0325.4143.0256.2062.1207.444.0864.6968-.0366.2478.1047.4687.2218.7165.1166.246.144.1413.4079.1564.2634.0069.2826-.0151.5725-.0082.2931.0082.2931.0631.4728-.0485.1811-.0997.2327-.193.4156-.4504.1829-.2597.2003-.4742.2085-.642.0101-.1664.1513-.273.2812-.4691.1253-.1975.0256-.176.0622-.3973.0357-.2213.0759-.1646.257-.4275.177-.2693.1532-.251.3004-.4207.1495-.1728.1445-.2926.2908-.5354.1472-.2378.0347-.251.0896-.4175.0503-.171.0983-.1994.2332-.316.1331-.118.2551.0201.3141.0681.0599.0517.2071.2762.2926.4275.0914.1596.1399.3909.1504.4623.0082.07-.059.2144-.0091.321.0485.1116.1509.5203.2181.7.0631.1728-.1573.3242-.1107.4691.0434.1445-.069.5103-.0517.6004.0151.0896-.192.497-.2611.5903-.0741.0965-.2186.5203-.2794.7032-.0599.1797-.257.5354-.3617.6653-.1056.128-.1747.118-.2917.2396-.1175.1198-.2702.2227-.4915.3891-.2263.1577-.4815.2894-.6502.4408-.1724.1463-.262.2012-.4531.3242-.1971.118-.1523.0695-.1262.1596.0238.0928.0846.1861.1536.2547.069.0663.1513.0896.3292.1591.1797.075.2711.1134.4691.1449.2016.0265.1669-.1212.4687-.0581.2972.0613.1907.0649.47-.0901.2775-.1559.3534-.1312.551-.2945.2021-.1609.2474-.241.321-.2675.0722-.0283.2231-.0732.331-.1728.1075-.0965.0123-.1248.1381-.2894.123-.1596.1344-.2913.326-.4742.1902-.1747.0704-.2126.1747-.364.0978-.15.1395-.2876.2666-.5423.1248-.2442.2163-.6616.3063-.7997.0855-.1312.0014-.3877.0773-.6154.0754-.2295.1107-.5235.1221-.7233.011-.1962.0448-.241.0814-.3411.0325-.0928-.0297-.4037-.0498-.5903-.0206-.193-.0508-.4755-.0521-.5935-.0037-.1248-.0151-.1216-.0178-.2794-.0032-.1582-.0439-.1349-.0613-.4175-.0224-.2762-.059-.2542-.0709-.379-.0123-.1248-.1088-.3594-.0105-.4755.0928-.1084.1344-.0768.2533-.0668.1175.0101.2346.1413.2954.1829s.3658.2245.454.3242c.0905.1001.577.353.6891.401.1139.048.3086.2163.4435.241.1344.0201.417.2446.5455.3658.1285.1166.4431.3475.5295.3758.0892.0233.3809.1614.5235.2181.1367.0549.2794.0549.4591.1994.1737.1449.379.1646.5121.1998.1367.0347.5139.0764.6744.1248.1591.0512.4467-.0485.8075.0197.3585.0764.6758-.3722.7499-.4988.0759-.128.0293-.1216.1001-.3141.0686-.193.1436-.2977.2259-.401.0832-.1029.0933-.2346.0933-.3992,0-.166.1605-.1943.1605-.3841,0-.1962.0032-.3406.053-.5103.0434-.1646.1728-.3859.1747-.6036.0018-.2131.1948-.3795.1669-.5789-.0274-.2048-.0672-.2181-.1587-.3374-.0928-.1285-.2186-.0151-.379.048Z" style="fill: white;fill-rule: evenodd;stroke-width: 0px;"/>
      <path d="m120.4533,70.1581c-.9656.8401-2.1822,1.4083-3.5208,1.5896-.2928.0349-.5891.0593-.8889.0593-3.6951,0-6.5745-2.5342-6.5745-6.191,0-4.7339,5.1871-7.3135,9.5096-5.5531-2.116-9.1192-6.1457-18.5696-11.033-25.6774-.8192-1.1852-1.7011-2.4681-2.5378-3.4894-7.3135,8.4848-21.9405,2.2624-27.03-5.7797-5.5845,7.69-19.34,14.6933-27.0161,5.7797-.8331,1.0214-1.7221,2.3042-2.5343,3.4894-4.8838,7.1078-8.9101,16.5582-11.026,25.6774,4.3156-1.7604,9.5027.8192,9.5027,5.5531,0,3.6568-2.8759,6.191-6.5745,6.191-.2998,0-.5926-.0244-.882-.0593-1.3421-.1813-2.5552-.7494-3.5243-1.5896-.0279.4323-.0558.868-.0767,1.3003.122,26.1062,18.1896,47.984,42.1137,56.7128,23.9205-8.3872,42.0509-30.896,42.1764-56.7128-.0244-.4323-.0488-.868-.0837-1.3003Zm-42.0753,54.0774c-21.449-8.2547-36.5989-26.169-38.3593-48.6672.2998.0209.5996.0418.9029.0418,5.71,0,10.3637-4.6049,10.3637-10.2487,0-5.0685-4.1239-9.3353-9.0181-10.1476,2.1299-7.1322,5.6333-13.4348,9.7676-19.6259,4.6084,2.4436,11.908,3.1653,18.5138.4148,3.0467-1.2689,5.6995-3.0537,7.8294-5.0581,2.1264,2.0044,4.7827,3.7892,7.8329,5.0581,6.6059,2.7504,13.9159,2.0288,18.5243-.4148,4.1378,6.191,7.6412,12.4937,9.7711,19.6259-4.8943.8123-9.0216,5.079-9.0216,10.1476,0,5.6438,4.6607,10.2487,10.3707,10.2487.3068,0,.6066-.0209.9029-.0418-1.7639,22.4982-16.9208,40.4126-38.3802,48.6672Z" style="fill: white;fill-rule: evenodd;stroke-width: 0px;"/>
      <g>
        <path d="m75.4994,98.9901c-.5016,0-.9698.2219-1.3915.6595-.4314.4479-.7514,1.0772-.9509,1.8705-.1767.7023-.1593,1.2687.0515,1.6835.2043.401.5561.5961,1.0753.5961.3368,0,.6656-.0624.9771-.1853.0031-.0012.0061-.0024.0091-.0036.5695-.2279.883-.7732,1.107-1.3443.2897-.7387.419-1.8155.144-2.4634-.2248-.5296-.5127-.8129-1.0217-.8129Z" style="fill: white;stroke-width: 0px;"/>
        <path d="m101.605,65.6102c0-5.5211,3.4942-10.7594,8.1963-13.0574-1.7441-4.6726-4.0068-9.1154-6.6112-13.1046-4.0658,2.3923-11.331,2.2568-18.5668-.7542-2.2214-.9251-4.2602-2.0682-6.24-3.4293-2.0741,1.3081-3.9596,2.4807-6.2341,3.4293-7.2299,3.011-14.4952,3.1465-18.555.7542-2.5985,3.9891-4.8612,8.4319-6.6113,13.1046,4.7021,2.298,8.2022,7.5363,8.2022,13.0574,0,6.6584-4.9732,11.8083-11.2721,13.2578,3.2113,18.1544,17.3706,34.8827,33.8987,41.4939.1886.0707.3771.1591.5715.218,16.97-5.9041,31.4062-24.2588,34.4938-41.7119-6.2989-1.4495-11.2721-6.5994-11.2721-13.2578Zm-37.8863,38.1003c-.1692.0615-.3461.0912-.5281.089-.064-.0008-.1287-.0055-.1938-.0142-.2777-.0372-.5306-.114-.7517-.2283-.2171-.1122-.4172-.2303-.5948-.3509-.1781-.123-.3568-.2376-.5314-.3409-.1688-.1-.3459-.1629-.5264-.1869-.2384-.0322-.4407.0219-.6171.1645-.1826.1477-.3842.3636-.604.703,0,0-.0189-.0099-.0455-.0249l-.419-.235c-.0273-.0154-.0547-.0305-.0547-.0305.0699-.1406.2155-.3551.3717-.5449.1558-.1895.3235-.3568.4985-.4973.1723-.1421.3869-.2613.6371-.3536.2529-.0934.5023-.1245.7417-.0925.2853.0382.541.1154.7604.2295.2154.1121.4162.2302.597.351.1923.1306.3678.2461.5216.3434.1498.095.3264.1566.5252.1832.2504.0333.4595-.0248.641-.1777.1877-.1583.4039-.4206.5795-.6907,0,0,.0189.0105.046.0258l.419.2351c.028.0157.0514.028.0514.028-.0731.1353-.2156.354-.3679.5489-.1536.1967-.3199.364-.4944.4973-.2136.1632-.4362.2876-.6616.3697Zm4.5481,1.1506c.0284.0913.0815.1539.1667.1969.0616.0293.2025.076.5072.1238.2531.0402.6097.0745.7333.0789l-.1978.7425h-4.8831l.2012-.7541c.1383-.0091.4479-.0283.7429-.0577.2876-.0287.4893-.0584.5992-.0883.1288-.0385.2348-.0999.3202-.1868.0837-.0848.1489-.2193.1941-.3997l1.2203-4.6308h-1.6698l.2292-.8434h.376c.4714,0,.9223-.0885,1.3394-.2632.4185-.1751.7361-.364.9446-.5613.025-.0237.0581-.0368.0926-.0368h.7517c-.0883.2958-.2441.8147-.3573,1.2105-.1128.395-.2087.749-.2874,1.0621l-1.0193,4.0534c-.0339.1345-.0352.2535-.0037.354Zm9.8351-2.4827c-.2017.8019-.5229,1.5671-.9543,2.2745-.4311.7069-.9591,1.3367-1.569,1.872-.5973.5249-1.2848.9676-2.0429,1.3157-.759.3478-1.6817.5955-2.5382.706-.0058.0006.2456-.9221.2456-.9221l.4923-.0838c1.0185-.2996,1.8944-.7703,2.5883-1.3957.5923-.5336,1.0823-1.1985,1.4606-1.9811-.3233.1981-.6372.3526-.9366.4611-.4217.1526-.8778.2299-1.356.2299-.7856,0-1.4013-.3112-1.8301-.9247-.4251-.6086-.5239-1.3807-.2944-2.2948.2432-.9667.7811-1.7926,1.5987-2.4547.8188-.6633,1.722-.9995,2.6833-.9995,1.0624,0,1.8271.3878,2.2731,1.1527.4382.7523.4987,1.7767.1798,3.0446Zm-2.5529-38.0291v28.1831h-16.7047v-5.692h11.1365v-22.5205h-5.4504v15.6972h-5.6861v-21.3774h16.7047v-5.9572h-16.7047v-5.6861h39.0956v5.6861h-16.7047v5.9572h16.7047v21.3774h-5.6861v-15.6972h-5.4504v22.5205h11.1365v5.692h-16.7047v-28.1831h-5.6862Zm6.6537,40.5118c.0284.0913.0815.1539.1667.1969.0616.0293.2024.076.5071.1238.2532.0402.6098.0745.7334.0789l-.1978.7425h-4.8831l.2011-.7541c.1383-.0091.448-.0283.7429-.0577.2877-.0287.4893-.0584.5992-.0883.1289-.0385.2348-.0999.3202-.1868.0836-.0848.1488-.2193.1941-.3997l1.2203-4.6308h-1.6699l.2292-.8434h.376c.4713,0,.9223-.0885,1.3394-.2632.4185-.1751.7361-.364.9446-.5613.025-.0237.0581-.0368.0926-.0368h.7517c-.0883.2958-.2441.8147-.3573,1.2105-.1128.395-.2087.749-.2874,1.0621l-1.0192,4.0534c-.034.1345-.0352.2535-.0037.354Zm9.8559-4.2185c-.087.3449-.2184.663-.3912.9455-.1748.2863-.4067.5421-.6896.7601-.3068.2375-.6515.444-1.0243.6135-.3665.1667-.9104.3942-1.6633.6955-.4343.1747-.8508.3606-1.2377.5522-.2097.1041-.4022.207-.5757.308h4.9821s-.3952,1.4934-.3952,1.4859h-6.6785s.301-1.1453.3145-1.1681c.1629-.1451.3811-.3093.649-.4879.2618-.1748.5747-.3682.9299-.5747.214-.1235.4713-.2604.7647-.4069.2929-.1462.623-.306.9912-.4794.4004-.1876.7177-.3549.9433-.4974.2202-.1395.4364-.3148.6417-.5209.1306-.1312.2529-.2992.3635-.4991.1108-.1998.2151-.4935.3105-.8728.131-.5204.0931-.9008-.1125-1.1305-.2106-.2354-.5384-.3548-.9748-.3548-.2781,0-.5589.0555-.8349.165-.0338.0133-.0669.0274-.0993.042-.3266.1482-.5379.4719-.5427.8305,0,.0018,0,.0035,0,.0053-.0029.2105-.0297.4187-.0799.619-.0513.2028-.1793.383-.3807.5356-.2002.1519-.4598.229-.7711.229-.3494,0-.5116-.1671-.5859-.3073-.0994-.1865-.1118-.4315-.0374-.7282.0663-.2633.2066-.53.417-.7926.2066-.2574.4722-.4977.79-.7143.3119-.2115.6786-.3849,1.0903-.5159.4124-.1311.8449-.1976,1.2851-.1976.9653,0,1.692.2224,2.1597.6611.4806.4503.6294,1.056.4424,1.8005Zm6.2831,2.2009c-.1535.1967-.3199.364-.4944.4973-.2135.1632-.4362.2876-.6616.3697-.169.0615-.3461.0912-.5281.089-.0639-.0008-.1286-.0055-.1938-.0142-.2777-.0372-.5306-.114-.7516-.2283-.2172-.1122-.4173-.2303-.5948-.3509-.1781-.123-.3568-.2376-.5314-.3409-.1688-.1-.346-.1629-.5264-.1869-.2384-.0322-.4408.0219-.617.1645-.1826.1477-.3843.3636-.6041.703,0,0-.0188-.0099-.0455-.0249l-.4189-.235c-.0274-.0154-.0548-.0305-.0548-.0305.0701-.1406.2156-.3551.3718-.5449.1557-.1895.3235-.3568.4985-.4973.1723-.1421.3869-.2613.6371-.3536.253-.0934.5023-.1245.7418-.0925.2851.0382.541.1154.7604.2295.2154.1121.4161.2302.597.351.1924.1306.3678.2461.5216.3434.1499.095.3266.1566.5254.1832.2503.0333.4595-.0248.641-.1777.1878-.1583.404-.4206.5795-.6907,0,0,.0189.0105.0461.0258l.4189.2351c.0279.0157.0514.028.0514.028-.0729.1353-.2156.354-.3678.5489Z" style="fill: white;stroke-width: 0px;"/>
      </g>
    </g>
  </g>
</svg>